<?xml version="1.0" encoding="utf-8"?>
<!-- Uploaded to: SVG Repo, www.svgrepo.com, Generator: SVG Repo Mixer Tools -->
<svg width="800px" height="800px" viewBox="-13.73 0 326.261 326.261" xmlns="http://www.w3.org/2000/svg"><defs><style>.a{fill:#211715;}.b{fill:#b3b3b3;}.c{fill:#ffffff;}.d{fill:#957f6e;}</style></defs><path class="a" d="M39.674,139.355a2.8,2.8,0,0,1,1.542-3.553c.7-.3,1.425-.6,2.152-.892a3.168,3.168,0,0,1,4.1,1.794c2.339,5.93,5.817,14.965,7.081,18.437l1.726,4.381a14.348,14.348,0,0,0-4.114-1.345,26.753,26.753,0,0,0-5.606-.423c-.39-.938-.694-1.672-.694-1.672C44.075,151.541,41.432,144.132,39.674,139.355Z"/><path class="a" d="M7.516,46.382c3.7,9.746,7.271,19.539,10.858,29.325q7.617,20.78,15.067,41.618c2.215,6.226,4.419,12.457,6.531,18.719.982,2.912,5.62,1.663,4.629-1.276-4.153-12.313-8.587-24.534-13.007-36.753q-7.164-19.8-14.471-39.554c-1.648-4.456-3.294-8.913-4.979-13.355A2.467,2.467,0,0,0,9.192,43.43a2.418,2.418,0,0,0-1.676,2.952Z"/><path class="b" d="M2.8,40.1c.124.306.768,1.89,1.828,4.495a2.7,2.7,0,0,0,3.5,1.5l3.044-1.219a2.7,2.7,0,0,0,1.5-3.5c-1.032-2.61-1.368-3.449-1.788-4.493-.937-2.33-4.03-4.408-6.037-3.746C3.117,33.71,1.7,37.4,2.8,40.1Z"/><path class="a" d="M.483,40.742q.527,1.3,1.055,2.6c.748,1.839,1.333,3.817,3.245,4.769a5.25,5.25,0,0,0,3.313.474,13.1,13.1,0,0,0,2.545-.925,9.422,9.422,0,0,0,2.965-1.529,5.08,5.08,0,0,0,1.486-2.444c.485-1.877-.317-3.487-.992-5.184-.414-1.042-.79-2.127-1.28-3.135-1.411-2.9-5.3-5.559-8.61-4.54C2.29,31.416,1.139,33.22.5,35.017a8.567,8.567,0,0,0-.02,5.725,2.456,2.456,0,0,0,2.952,1.676,2.425,2.425,0,0,0,1.676-2.952,8.538,8.538,0,0,1-.264-.874c-.119-.444-.02.038,0,.095a1.7,1.7,0,0,1-.032-.458c-.01-.277,0-.55.022-.826.037-.591-.091.364,0,.006.044-.174.07-.353.115-.527.028-.108.28-.647.239-.751.074.185-.208.4-.007.033.065-.118.123-.24.191-.356.052-.09.113-.175.165-.265.244-.426-.292.256-.063.073a2.21,2.21,0,0,0,.239-.254c.281-.321-.451.289-.082.055.025-.016.21-.12.211-.118.024.132-.645.2-.155.1.315-.065-.636-.009-.137.019.095.006.2.005.3,0,.449-.006-.175.016-.178-.029,0,0,.438.105.47.115a1.342,1.342,0,0,1,.316.107q-.424-.189-.179-.076c.079.036.158.074.235.114.268.138.513.3.768.462.1.064.33.282-.047-.046.092.08.189.156.28.238.23.2.433.428.646.65.293.308.015.008-.035-.063.1.144.205.289.3.441s.166.3.25.455c.11.2.033.339-.066-.17a2.525,2.525,0,0,0,.169.42q.205.511.41,1.026c.436,1.092.867,2.186,1.279,3.286.145.387-.091-.165-.008-.132,0,0,.011.642.019.182.009-.444.02.159-.061.167-.036,0,.313-.532.047-.119-.07.109-.342.343-.093.167.355-.25-.192.125-.159.119,0,0,.5-.288.065-.083-.545.256.542-.2-.209.1-.706.277-1.407.564-2.111.846-.209.084-.418.18-.633.248a2.432,2.432,0,0,0-.336.086c.108-.118.473-.044.133-.039-.51.006.424.152-.022,0-.521-.177.417.31-.041,0l-.143-.083q-.322-.219.088.074c-.03.008-.236-.259-.234-.241q.27.363.126.139a1.943,1.943,0,0,1-.126-.228c.234.4-.014-.041-.063-.162l-.261-.642-.423-1.04q-.456-1.12-.911-2.24A2.462,2.462,0,0,0,2.159,37.79,2.423,2.423,0,0,0,.483,40.742Z"/><path class="c" d="M78.825,206c-1.044-13.8-1.544-27.224-4-31.027-1.774-2.746-3.881-4.64-5.6-6.695a13.088,13.088,0,0,1-3.036-5.774c-.812-3.712-2.784-8.584-6.727-8.816-2.614-.153-3.422,1.842-3.77,3.016,0,0-.254.858-.663,2.25a16.289,16.289,0,0,0-2.858-.779c-6.838-1.254-14.308.259-14.552,3.8-.311,1.757.142,3.318,1.527,6.09a6.95,6.95,0,0,0-1.534,4.611,1.235,1.235,0,0,0,.365.84l.593,1.787a4.557,4.557,0,0,0-4.475,1.376c-1.4,1.537-2.473,4.852-.779,6.061.744.532,1.4,1.069,2.04,1.589l-.1-.014c-2.842-.986-6.789,1.521-6.554,4.118.18,1.993,1.76,3.851,3.391,5.144l.234.185c.731,1.211,1.165,1.932,1.165,1.932a45.392,45.392,0,0,0,10.84,12.264c1.226.962,2.5,1.862,3.688,2.873a25.22,25.22,0,0,1,5.009,5.813l.962,1.678c4.943-1.829,18.011-6.722,25.106-10.087C78.936,206.978,78.825,206,78.825,206Z"/><path class="a" d="M40.714,191.149c.042.059.082.119.122.179.115.171.224.163.04.048l-.065-.146.043.149.018.077c.027.129.026.1,0-.081-.081-.021,0-.25,0,.091,0,.086.005.171,0,.257s-.02.178-.013.261c.025.273.113-.458,0-.021-.044.176-.076.353-.126.527-.023.079-.256.691-.121.387s-.146.263-.185.33a1.314,1.314,0,0,0-.131.208c-.073.229.262-.257.092-.113a1.158,1.158,0,0,0-.2.211c-.146.211.194-.165.18-.132-.054.135-.467.269-.571.339-.212.141.078-.023.121-.039-.095.037-.191.071-.287.1a6.541,6.541,0,0,1-.8.215c-.1.021-.206.041-.31.057.105-.017.466-.029.01-.017-.209.006-.416.016-.625.009-.137,0-.272-.018-.409-.029.045,0,.393.093.143.009-.269-.091-.549-.147-.819-.244s-.046-.013,0,.01c-.113-.049-.223-.1-.333-.158-.259-.128-.512-.266-.76-.412a17.258,17.258,0,0,1-1.448-.965q-.2-.147-.4-.3c.044.034.207.162-.006-.007s-.417-.335-.618-.511a14.591,14.591,0,0,1-1.145-1.148c-.006-.006-.254-.3-.107-.117s-.085-.116-.091-.125c-.152-.219-.3-.441-.429-.672-.066-.118-.332-.74-.185-.331-.1-.275-.155-.554-.236-.834.09.309.031.122.018-.091-.022-.361-.168.461.027-.038.005-.015.066-.223.073-.221.056.014-.253.426-.078.213a2.1,2.1,0,0,0,.162-.281c.041-.069.272-.33.055-.094s-.01.021.029-.018c.1-.1.206-.205.307-.308.062-.063.133-.115.2-.175-.22.2-.224.151.017,0,.181-.115.36-.23.549-.33.109-.058.223-.106.331-.164-.163.087-.328.116-.06.032.236-.074.468-.151.709-.2.089-.02.182-.03.27-.052.292-.077-.551,0-.006.016.206,0,.422.018.627.014.3-.007-.358-.163-.112,0a2.245,2.245,0,0,0,.426.119,2.419,2.419,0,0,0,2.952-1.676A2.453,2.453,0,0,0,35.885,182a7.987,7.987,0,0,0-7.684,2.046,6.083,6.083,0,0,0-1.888,3.778,7.067,7.067,0,0,0,1.205,4.273,13.219,13.219,0,0,0,3.064,3.33,18.808,18.808,0,0,0,3.932,2.563c2.869,1.275,6.508,1.181,8.963-.989,2.055-1.817,3.077-5.929,1.381-8.273a2.457,2.457,0,0,0-3.283-.861,2.428,2.428,0,0,0-.861,3.284Z"/><path class="a" d="M41.852,174a8.822,8.822,0,0,0-6.121-1.011,7.208,7.208,0,0,0-4.207,3.1,8.4,8.4,0,0,0-1.469,4.973,4.925,4.925,0,0,0,.786,2.5,10.915,10.915,0,0,0,2.39,2.111c2.3,1.859,4.727,3.534,7.1,5.287a18.684,18.684,0,0,0,3.121,2.005,7.376,7.376,0,0,0,5.162.272A6.733,6.733,0,0,0,53.2,189.2a7.113,7.113,0,0,0-.913-6.732A2.467,2.467,0,0,0,49,181.6a2.419,2.419,0,0,0-.861,3.283,4.967,4.967,0,0,1,.64,1.068c-.091-.241.142.783.088.342.019.153,0,.789.018.647.033-.276-.047.187-.063.248a3.789,3.789,0,0,1-.17.529c.172-.409-.121.14-.188.264-.171.316.242-.305.021-.015-.039.05-.347.358-.14.171s-.137.094-.2.129c-.1.057-.2.11-.293.167-.39.226-.17.075-.062.036-.185.067-.372.125-.562.176-.153.041-.307.072-.462.105-.39.083.333-.017-.058.011-.266.019-.526.009-.791.017-.451.013-.115-.016.006.016a.877.877,0,0,1-.2-.05c-.5-.306.389.234-.1-.044a25.758,25.758,0,0,1-2.439-1.572q-2.369-1.713-4.744-3.407c-1.117-.8-2.487-2.132-3.611-2.832-.258-.161.173.245-.029-.046.22.316.127.239.051.059-.153-.36,0-.073,0,.066,0-.169.076-.885-.015-.4a6.745,6.745,0,0,1,.217-.853c.046-.141.095-.284.152-.421-.164.395.043-.062.084-.134a9.269,9.269,0,0,1,.5-.819c-.291.4.259-.232.364-.335.253-.246-.3.183,0,0,.147-.09.293-.176.442-.264.106-.062.4-.125,0,0,.135-.041.276-.075.41-.119.4-.134.148-.032.016-.021a5.089,5.089,0,0,1,.579-.015c.054,0,.542.052.292.015-.226-.034.39.1.448.114a4.906,4.906,0,0,1,1.087.434,2.457,2.457,0,0,0,3.284-.861A2.425,2.425,0,0,0,41.852,174Z"/><path class="a" d="M49.645,180.179c-2.666-2.161-5.254-4.411-7.875-6.625q-.738-.624-1.486-1.238a4.409,4.409,0,0,0-.44-.358c-.2-.123-.28-.383.039.163.268.46.13.391.085.19.139.614.016.163.016-.042,0-.132.012-.262.019-.393-.027.5-.008.037.026-.1.082-.333.159-.663.269-.988.049-.144.1-.29.159-.429-.162.377,0,.028.034-.034.089-.148.173-.3.259-.454s.067-.116-.1.095a2.579,2.579,0,0,1,.206-.225,2.836,2.836,0,0,1,2.987-.4c-.109-.041-.408-.213.194.1.191.1.38.2.568.3q.613.33,1.21.69a23.733,23.733,0,0,1,2.289,1.548,28.4,28.4,0,0,1,3.409,3.233,11.333,11.333,0,0,1,2.154,3.586c.044.121.1.589.063.143a3.238,3.238,0,0,1-.013.7c.075-.537-.3.806-.134.409a4.214,4.214,0,0,1-.228.437s-.411.6-.187.321a4.282,4.282,0,0,1-.328.358c-.038.038-.566.428-.248.225a2.848,2.848,0,0,1-.4.231c.372-.158-.4.051-.019-.012-.388.064-.285-.024-.127,0,.016,0-.725-.235-.419-.108a6.824,6.824,0,0,1-1.255-.751,9.167,9.167,0,0,1-.733-.569,2.472,2.472,0,0,0-3.394,0,2.418,2.418,0,0,0,0,3.394c1.768,1.433,3.765,2.981,6.185,2.812a6.758,6.758,0,0,0,5.4-4.145c1.086-2.435.7-4.614-.453-6.941a19.032,19.032,0,0,0-4.041-5.106,29.037,29.037,0,0,0-5.488-4.144c-2.217-1.287-4.45-2.086-7.033-1.537a6.858,6.858,0,0,0-4.9,4.359c-.7,1.7-1.179,3.991-.177,5.673a9.9,9.9,0,0,0,2.287,2.109c.786.659,1.564,1.327,2.342,1.994,1.943,1.665,3.9,3.315,5.884,4.926a2.471,2.471,0,0,0,3.394,0A2.418,2.418,0,0,0,49.645,180.179Z"/><path class="a" d="M58,157.344c.261-.852.462-1.482,1.715-1.2,1.294.29,2.216,1.738,2.842,2.992a34.853,34.853,0,0,1,1.608,5.106A16.948,16.948,0,0,0,67.37,169.8c1.3,1.588,2.785,3.018,4.087,4.607a14.21,14.21,0,0,1,1.464,2.068c.073.13.362.765.157.273.14.335.254.683.362,1.03a51.768,51.768,0,0,1,1.669,10.567c.541,5.879.873,11.776,1.316,17.662a2.459,2.459,0,0,0,2.4,2.4,2.419,2.419,0,0,0,2.4-2.4c-.443-5.886-.775-11.783-1.316-17.662-.377-4.087-.639-8.478-2.017-12.38-1.46-4.13-5.1-6.714-7.588-10.159-1.3-1.8-1.65-3.682-2.282-5.755a16.447,16.447,0,0,0-3.072-5.966,7.494,7.494,0,0,0-6.865-2.688c-2.494.417-4.008,2.375-4.714,4.676-.908,2.96,3.723,4.226,4.628,1.276Z"/><path class="a" d="M51.705,168.015a53.5,53.5,0,0,0,2.77,10.27c1.01,3.1,1.844,6.344.905,9.564-.867,2.971,3.764,4.24,4.628,1.276,1.065-3.651.517-7.451-.562-11.03-1-3.325-2.529-6.6-2.941-10.08a2.475,2.475,0,0,0-2.4-2.4,2.415,2.415,0,0,0-2.4,2.4Z"/><path class="a" d="M49.069,169.48c3.3.523,7.722.948,10.485-1.4a6.169,6.169,0,0,0-.07-9.236c-3.019-2.678-7.434-3.373-11.332-3.49-3.375-.1-7.439.249-10.293,2.253a6.7,6.7,0,0,0-1.89,1.905,4.893,4.893,0,0,0-.551,1.215c-.057.194-.247,1.507-.16.867a11.9,11.9,0,0,0,1.391,6.819,2.418,2.418,0,0,0,3.283.861,2.454,2.454,0,0,0,.861-3.283,12.146,12.146,0,0,1-.707-1.876,3.2,3.2,0,0,1-.161-1.368c0-.084.163-.98.069-.632-.121.452.217-.475.03-.071s.306-.4.066-.09c-.221.288.511-.456.27-.261-.167.136.293-.187.384-.241.2-.12.41-.228.622-.329.243-.115.049-.027,0,0,.16-.067.328-.124.491-.18.3-.1.612-.194.922-.275a16.349,16.349,0,0,1,3.674-.5,18.145,18.145,0,0,1,8.373,1.31c.251.123.5.258.737.4.073.045.581.393.347.212a5.965,5.965,0,0,1,.585.55c.191.2-.01-.038-.038-.076.079.107.15.221.218.335.182.309,0-.194.1.242s.023-.1.064.335c.036.383.01.252.031.088a2.277,2.277,0,0,1-.084.354c-.076.256.006.051.029,0a2.2,2.2,0,0,1-.244.427c.187-.253-.431.323-.256.207a1.429,1.429,0,0,1-.535.239c-.137.041-.279.068-.419.1s-.784.114-.322.061a17.4,17.4,0,0,1-4.693-.089,2.476,2.476,0,0,0-2.952,1.676,2.418,2.418,0,0,0,1.676,2.953Z"/><path class="a" d="M31.411,196.9a48.122,48.122,0,0,0,9.155,11.032c1.839,1.629,3.881,3,5.748,4.591a23.64,23.64,0,0,1,4.634,5.327c1.651,2.6,5.806.2,4.144-2.422a28.232,28.232,0,0,0-4.833-5.814c-1.824-1.652-3.893-3.005-5.76-4.606a43.852,43.852,0,0,1-8.944-10.531c-1.6-2.636-5.754-.226-4.144,2.423Z"/><path class="d" d="M254.632,168.3c8.58-1.87,14.56-10.47,14.5-18a53.434,53.434,0,0,0-2.94-17.09c-2.41-7.51-7.094-22.765-7.424-50.045.672-7.677-.026-18.767-.329-23.029-1.052-14.775-7.658-31.275-17.164-40.445-4.11-3.965-5.3-5.816-9.777-8.244l-10.736-5.24c-6.608-2.546-12.752-3.77-24.347-3.77-19.011,0-35.932,9.794-43.44,16.982-12.457,11.925-20.359,33.708-19.362,63.746.01,21.89-1.661,37.672-4,46.642-.33,1.27-.65,2.72-.95,4.28a56.023,56.023,0,0,0-2.73,16.3c-.09,4.74.73,10.07,4.53,12.92,2.53,2.22,6.83,4.88,11.46,4.99Z"/><path class="c" d="M176.258,148.338a43,43,0,0,0,.314-6.9,41.59,41.59,0,0,1-15.242-11.915,49.418,49.418,0,0,1-9.451-18.53,11.652,11.652,0,0,1-7.488-2.67,18.42,18.42,0,0,1-4.768-6.257,29.01,29.01,0,0,1-2.958-15.378,9.677,9.677,0,0,1,1.013-3.894A6.852,6.852,0,0,1,142.6,79.52a7.3,7.3,0,0,1,5.443,1.4c3.5-1.424,13.287-5.926,15.891-7.466a117.867,117.867,0,0,0,12.258-8.245,50.412,50.412,0,0,0,6.458-1.183,49.2,49.2,0,0,0,4.8-1.267c12.331-3.995,26.18-12.526,32.4-20.134,1.316,7.066,3.342,14.071,10.427,24.127,3.444,4.889,8.444,11,15.437,14.468a7.252,7.252,0,0,1,5.8-1.7,6.848,6.848,0,0,1,4.923,3.273,9.678,9.678,0,0,1,1.014,3.894,29.01,29.01,0,0,1-2.958,15.378,18.42,18.42,0,0,1-4.768,6.257,12.214,12.214,0,0,1-5.685,2.562l-.973.151c-.466,1.746-.99,3.217-1.248,4-1.7,4.627-11.48,20.983-23.632,26.2-.021,3.276-.093,7.052,1.059,9.886.87,2.15,4.95,5.34,9.24,8.24,0,0,1.423,33.63-31.743,33.63-32.5,0-30.907-33.84-30.907-33.84,4.58-2.84,8.83-5.93,9.68-8.03A12.967,12.967,0,0,0,176.258,148.338Z"/><path class="c" d="M196.4,181.954h-.367a101.588,101.588,0,0,1-23.18-3.331l-.894-.341c3.884,11.453,7.9,23.131,11.752,33.869,4.428,12.343,9.4,25.41,13.9,37.838,4.928-13.765,8.552-23.512,13.405-37.041,4.027-11.223,8.54-23.518,12.45-35.652l-2.3.636C214.063,180.756,203.771,181.933,196.4,181.954Z"/><path class="c" d="M52.546,218.848c3.289-1.21,20.916-7.7,28.166-11.413.827,1.653,2.562,5.718,3.622,7.9l.458.926c-8.58,4.366-20.293,9.633-29,12.1-.244-.61-.421-1.053-.441-1.114-.922-2.745-2.752-7.49-3.111-8.283Z"/><path class="b" d="M296.39,323.861c-2.963-58.963-5.731-110.22-11.332-128.889-1.61-5.369-3.639-10.116-6.324-12.263s-7.148-3.574-10.251-5.073c-11.354-5.484-27.22-12.513-33.4-17.636q-.51-.4-1.034-.806s-3.848-2.606-4.49-3.054c-4.475,18.334-12.126,38.93-18.54,56.808-4.853,13.529-8.477,23.276-13.4,37.041-4.493-12.428-9.469-25.5-13.9-37.838-6.393-17.821-13.238-38.231-19.18-55.908l-.079.056-4.593,3.111q-1.521,1.172-2.918,2.381c-9.427,5.073-21.238,8.31-30.94,13-2.972,1.436-6.462,2.11-8.714,4.523a25.187,25.187,0,0,0-5.24,8.551c-7.106,18.555-7.987,28.705-15.874,48.313-2.934-7.009-5.687-13.827-8.729-21.289-9.682,5.1-25.109,12.166-34.788,14.265,4.825,15.449,9.666,32.069,16.466,47.541,4.725,10.749,11.194,20.768,22.549,23.756a29,29,0,0,0,25.071-4.605c6.134-4.482,12.89-13.562,17.14-18.93l.118-.125c.082,1.012.125,1.9.125,2.634,0,6.94-2.54,30.24-3.58,44.44Z"/><path class="a" d="M131.212,83.161c0,12.76-.349,25.861-2.356,38.363-.332,2.07-.717,4.134-1.194,6.176-.308,1.315-.661,2.617-.945,3.938-.414,1.92-1,3.777-1.474,5.684a59.434,59.434,0,0,0-1.677,11.884,26.953,26.953,0,0,0,1.018,9.5c2.306,6.953,10.22,11.708,17.338,12,3.089.124,3.083-4.676,0-4.8a15.906,15.906,0,0,1-8.413-3.219,10.541,10.541,0,0,1-4.456-5.761,25.905,25.905,0,0,1-.628-8.9A52.929,52.929,0,0,1,130.292,137a151.815,151.815,0,0,0,4.969-30.236c.555-7.853.75-15.728.751-23.6,0-3.089-4.8-3.094-4.8,0Z"/><path class="a" d="M256.372,83.164a184.115,184.115,0,0,0,4.279,39.148c.824,3.558,1.809,7.074,2.912,10.555a74.925,74.925,0,0,1,2.452,9.246,31.907,31.907,0,0,1,.583,10.215,16.966,16.966,0,0,1-12.6,13.662c-3.009.691-1.736,5.32,1.276,4.628a21.589,21.589,0,0,0,14.689-12.811c2.842-6.772,1.467-14.874-.408-21.737-1.1-4.022-2.489-7.951-3.528-11.992a143.15,143.15,0,0,1-3.037-15.412,198.475,198.475,0,0,1-1.814-25.5c-.04-3.086-4.84-3.095-4.8,0Z"/><path class="a" d="M247.415,82.915a4.753,4.753,0,0,1,6.778.793A8.139,8.139,0,0,1,255.14,88a25.538,25.538,0,0,1-.3,5.263c-1.074,6.345-4.371,14.076-11.435,15.306a2.42,2.42,0,0,0-1.676,2.952,2.455,2.455,0,0,0,2.952,1.677c9.711-1.692,14.352-12.708,15.157-21.474.389-4.242.281-9.548-3.3-12.474a9.712,9.712,0,0,0-12.518.27,2.421,2.421,0,0,0,0,3.394,2.45,2.45,0,0,0,3.394,0Z"/><path class="a" d="M241.572,105.486a24.182,24.182,0,0,1-1.127,6.024c-.229.771-.481,1.535-.737,2.3-.078.233-.158.464-.238.7-.16.469-.095.235-.032.1a50.888,50.888,0,0,1-3.238,5.924,57.461,57.461,0,0,1-12.836,14.8,24.358,24.358,0,0,1-9.466,4.786c-3.009.694-1.735,5.323,1.276,4.628,7.306-1.685,13.426-6.942,18.242-12.459a62.653,62.653,0,0,0,10.014-14.913,32.126,32.126,0,0,0,2.942-11.878c.106-3.089-4.7-3.085-4.8,0Z"/><path class="a" d="M150.1,79.521a9.711,9.711,0,0,0-12.517-.27c-3.583,2.926-3.692,8.232-3.3,12.474.805,8.766,5.446,19.782,15.156,21.474a2.469,2.469,0,0,0,2.952-1.677,2.42,2.42,0,0,0-1.676-2.952c-7.063-1.23-10.361-8.961-11.434-15.306a25.612,25.612,0,0,1-.3-5.263,8.277,8.277,0,0,1,.946-4.293,4.747,4.747,0,0,1,6.778-.793,2.464,2.464,0,0,0,3.394,0,2.42,2.42,0,0,0,0-3.394Z"/><path class="a" d="M148.546,107.443c3.071,14.516,11.639,28.664,25.317,35.38a34.3,34.3,0,0,0,11.661,3.341,2.416,2.416,0,0,0,2.4-2.4,2.454,2.454,0,0,0-2.4-2.4c-13.461-1.4-24.471-13.04-29.313-25.052a60.68,60.68,0,0,1-3.037-10.145c-.639-3.02-5.267-1.742-4.628,1.276Z"/><path class="a" d="M221.4,3.9C212.65.547,203.091-.331,193.777.1a69.9,69.9,0,0,0-30.723,9.126,54.417,54.417,0,0,0-17.619,15.26,69.618,69.618,0,0,0-10.491,22.72c-3.2,11.664-4.113,23.907-3.731,35.96.1,3.081,4.9,3.094,4.8,0-.577-18.2,1.656-37.864,11.7-53.526a47.174,47.174,0,0,1,14.8-14.5A66.151,66.151,0,0,1,189.88,5.219a78.6,78.6,0,0,1,17.937.183,51.133,51.133,0,0,1,12.307,3.123,2.417,2.417,0,0,0,2.952-1.676A2.453,2.453,0,0,0,221.4,3.9Z"/><path class="a" d="M261.168,83.169a126.342,126.342,0,0,0,.06-16.465,106.533,106.533,0,0,0-1.439-14.626c-2.078-11.125-6.633-22.252-13.939-30.981-1.921-2.3-4.129-4.346-6.245-6.459a30.6,30.6,0,0,0-6.9-5.259c-2.708-1.491-5.132,2.653-2.422,4.144a24.539,24.539,0,0,1,5.455,4.044c1.866,1.829,3.779,3.648,5.539,5.579a52.277,52.277,0,0,1,8.458,13.134,70.868,70.868,0,0,1,5.109,15.5,88.545,88.545,0,0,1,1.521,13.732,130.736,130.736,0,0,1,0,17.659,2.42,2.42,0,0,0,2.4,2.4,2.448,2.448,0,0,0,2.4-2.4Z"/><path class="a" d="M215.792,141.234a50.38,50.38,0,0,0,.21,6.337,12.509,12.509,0,0,0,1.69,5.667c2.372,3.425,6.2,5.888,9.589,8.188a2.4,2.4,0,0,0,2.422-4.144c-1.614-1.095-3.218-2.214-4.728-3.45-.661-.541-1.308-1.1-1.921-1.7-.268-.26-.531-.526-.781-.8-.127-.14-.25-.283-.371-.428-.245-.294.265.432-.066-.091-.145-.23-.29-.45-.413-.693-.131-.26.131.388,0-.038-.073-.226-.153-.448-.218-.676a13.877,13.877,0,0,1-.45-2.294,53.655,53.655,0,0,1-.158-5.88c.02-3.089-4.78-3.093-4.8,0Z"/><path class="a" d="M174.172,141.444a51.44,51.44,0,0,1-.165,5.757,14.206,14.206,0,0,1-.482,2.362c-.066.222-.142.439-.219.658.054-.152.136-.232.017-.045-.085.133-.548.819-.212.393-2.189,2.771-5.511,4.655-8.48,6.5a2.4,2.4,0,1,0,2.422,4.144c1.939-1.206,3.853-2.459,5.668-3.846A20.629,20.629,0,0,0,177,153.325a11.192,11.192,0,0,0,1.7-5.211,48.078,48.078,0,0,0,.277-6.67c-.02-3.088-4.82-3.094-4.8,0Z"/><path class="a" d="M189.449,47.868a65.239,65.239,0,0,1-15.778,16.265A99.388,99.388,0,0,1,156.507,74.5q-2.477,1.17-4.973,2.3-1.095.493-2.194.978c-.324.143-.647.284-.972.424l-.337.145c-.7.3.4-.165-.24.1a2.48,2.48,0,0,0-1.676,2.952,2.414,2.414,0,0,0,2.952,1.676,147.137,147.137,0,0,0,15.811-7.4,97.7,97.7,0,0,0,20.039-14.871,62.449,62.449,0,0,0,8.677-10.517c1.691-2.6-2.463-5-4.145-2.423Z"/><path class="a" d="M176.281,67.594c13.576-1.611,26.743-7.776,37.523-16.067a48.136,48.136,0,0,0,7.581-7.006,2.464,2.464,0,0,0,0-3.394,2.419,2.419,0,0,0-3.394,0c-5.026,5.962-11.9,10.37-18.733,13.98-7.144,3.774-14.909,6.73-22.977,7.687a2.475,2.475,0,0,0-2.4,2.4,2.414,2.414,0,0,0,2.4,2.4Z"/><path class="a" d="M246.93,79.145c-7.2-3.637-12.4-10.057-16.681-16.73a55.615,55.615,0,0,1-7.876-19.34,2.4,2.4,0,1,0-4.629,1.276,57.212,57.212,0,0,0,5.509,15.626,69.13,69.13,0,0,0,11.719,16.237,37.276,37.276,0,0,0,9.535,7.076c2.751,1.39,5.183-2.75,2.423-4.145Z"/><path class="a" d="M57.669,226.605c-1.183-2.925-2.095-5.964-3.353-8.857l-1.434,3.526q6.229-2.3,12.421-4.693c5.595-2.181,11.264-4.346,16.621-7.074l-3.284-.861c1.282,2.6,2.363,5.289,3.622,7.9a2.423,2.423,0,0,0,3.284.861,2.452,2.452,0,0,0,.861-3.284c-1.259-2.608-2.34-5.3-3.622-7.9a2.443,2.443,0,0,0-3.284-.861,171.337,171.337,0,0,1-15.768,6.706q-6.04,2.349-12.127,4.577a2.454,2.454,0,0,0-1.435,3.526c-.362-.834-.042-.078.026.1.112.294.22.59.328.885q.373,1.017.742,2.037c.573,1.57,1.147,3.14,1.774,4.69a2.476,2.476,0,0,0,2.952,1.676,2.416,2.416,0,0,0,1.676-2.952Z"/><path class="a" d="M172.216,180.937a93.623,93.623,0,0,0,25.195,3.407c8.146-.133,16.764-1.112,24.392-4.1a2.471,2.471,0,0,0,1.676-2.952,2.417,2.417,0,0,0-2.952-1.676c-7.265,2.844-15.358,3.8-23.116,3.926a88.639,88.639,0,0,1-23.919-3.235c-2.989-.792-4.264,3.837-1.276,4.628Z"/><path class="a" d="M185.954,260.817a6.165,6.165,0,0,1,.738.786l-.375-.486a5.239,5.239,0,0,1,.6,1.013l-.242-.573a4.968,4.968,0,0,1,.338,1.22l-.086-.638a5.445,5.445,0,0,1,0,1.362l.085-.638a5.908,5.908,0,0,1-.392,1.437l.241-.573a4.9,4.9,0,0,1-.575,1.017l.375-.486a4.3,4.3,0,0,1-.758.749l.486-.375a5.2,5.2,0,0,1-1.077.615l.574-.242a6.061,6.061,0,0,1-1.4.375l.638-.085a6.437,6.437,0,0,1-1.635,0l.638.086a5.651,5.651,0,0,1-1.341-.357l.573.242a4.477,4.477,0,0,1-.914-.523l.486.375a5.457,5.457,0,0,1-.89-.888l.375.486a4.667,4.667,0,0,1-.594-1.017l.242.573a4.383,4.383,0,0,1-.258-.962l.086.638a4.747,4.747,0,0,1,0-1.167l-.085.638a5.757,5.757,0,0,1,.4-1.421l-.242.573a7.38,7.38,0,0,1,.924-1.549l-.375.486a4.521,4.521,0,0,1,.715-.735l-.485.375a4.864,4.864,0,0,1,.983-.575l-.573.242a5.715,5.715,0,0,1,1.441-.389l-.638.086a5.767,5.767,0,0,1,1.42,0l-.638-.086a5.138,5.138,0,0,1,1.169.313l-.573-.242a4.392,4.392,0,0,1,.955.557l-.486-.375c.053.042.1.085.156.13a2.554,2.554,0,0,0,1.7.7,2.4,2.4,0,0,0,1.7-4.1,7.129,7.129,0,0,0-4.585-1.75,7.539,7.539,0,0,0-4.182,1.145,8,8,0,0,0-3.358,8.064,6.953,6.953,0,0,0,2.863,4.062,7.777,7.777,0,0,0,10.758-2.454,7.785,7.785,0,0,0,.9-4.164,7.406,7.406,0,0,0-2.4-4.9,2.4,2.4,0,0,0-3.394,3.394Z"/><path class="a" d="M198.494,323.861c2-18.366,4.228-36.676,5.051-55.144a45.067,45.067,0,0,0-.272-8.373,40.7,40.7,0,0,0-2.512-8.677,2.467,2.467,0,0,0-2.952-1.676,2.418,2.418,0,0,0-1.676,2.952,42.883,42.883,0,0,1,2.345,7.612,33.667,33.667,0,0,1,.309,7.158c-.189,4.968-.541,9.932-.884,14.891-.617,8.911-1.6,17.783-2.583,26.66-.541,4.866-1.1,9.73-1.626,14.6a2.415,2.415,0,0,0,2.4,2.4,2.456,2.456,0,0,0,2.4-2.4Z"/><path class="a" d="M155.612,159.782c-6.11,3.246-12.645,5.549-19.092,8.014-3.305,1.264-6.6,2.566-9.822,4.027-2.71,1.229-5.643,2.165-8.242,3.608-6.089,3.381-8.523,10.986-10.679,17.121-2.09,5.947-3.844,12-5.579,18.054-2.083,7.273-4.315,14.486-7.014,21.558a2.419,2.419,0,0,0,1.676,2.952,2.453,2.453,0,0,0,2.953-1.676c4.534-11.882,7.451-24.235,11.456-36.286,1.07-3.222,2.13-6.5,3.482-9.614,1.12-2.58,2.775-5.573,5.061-7.3s5.4-2.433,7.968-3.648c3-1.423,6.09-2.655,9.191-3.848,7.1-2.731,14.331-5.238,21.063-8.814,2.729-1.45.307-5.595-2.422-4.145Z"/><path class="a" d="M236.284,163.859A135.18,135.18,0,0,0,252.59,172.7c6.06,2.941,12.119,5.985,18.329,8.6,2.558,1.076,5.559,2.14,7.373,4.347a24.462,24.462,0,0,1,3.776,7.825,79.456,79.456,0,0,1,2.67,10.729c1.739,9.34,2.674,18.539,3.559,28.12,1.2,12.964,2.07,25.958,2.86,38.952,1.065,17.523,1.952,35.055,2.833,52.588.154,3.074,4.955,3.092,4.8,0-.8-15.921-1.607-31.842-2.544-47.756-.8-13.552-1.673-27.1-2.864-40.625-.894-10.149-1.905-20.323-3.625-30.37a95.509,95.509,0,0,0-2.2-10.135c-1.689-5.915-3.939-12.444-9.581-15.643-2.805-1.59-5.892-2.616-8.792-4.013-3.08-1.483-6.174-2.935-9.261-4.4-6.026-2.865-12.088-5.727-17.851-9.1-1.142-.668-2.268-1.364-3.368-2.1-2.575-1.722-4.981,2.434-2.423,4.145Z"/><path class="a" d="M227.144,155.889c-3.058,12.374-7.1,24.486-11.318,36.5-4.2,11.962-8.534,23.878-12.87,35.791q-3.624,9.959-7.219,19.928a2.422,2.422,0,0,0,1.676,2.952,2.45,2.45,0,0,0,2.953-1.676c8.595-23.953,17.8-47.735,25.579-71.971,2.146-6.69,4.142-13.43,5.828-20.252.741-3-3.887-4.278-4.629-1.276Z"/><path class="a" d="M215.227,244.566q9.054-12.936,17.487-26.293,4.266-6.762,8.363-13.627c2.668-4.469,5.448-8.93,7.861-13.543a4.478,4.478,0,0,0,.182-4.324,14.031,14.031,0,0,0-2.825-3.164c-2.124-2.092-4.33-4.1-6.547-6.088l-.486,3.77c1.98-1.175,3.93-2.4,5.95-3.509,1.964-1.074,4.766-1.974,4.045-4.847a16.414,16.414,0,0,0-2.847-4.989,39.531,39.531,0,0,0-3.7-4.4,75.3,75.3,0,0,0-12.048-9.541c-2.565-1.737-4.969,2.419-2.423,4.144l2.9,1.963a38.188,38.188,0,0,1,3.424,2.527,52.482,52.482,0,0,1,5.847,5.466,27.921,27.921,0,0,1,2.308,2.9q.5.728.952,1.484.253.423.492.853c.058.1.387.836.385.621l.328-1.211-.163.258.861-.861a41.756,41.756,0,0,1-4.2,2.285c-1.523.882-3.02,1.81-4.534,2.708a2.421,2.421,0,0,0-.485,3.769c1.808,1.625,3.609,3.259,5.365,4.941q1.271,1.217,2.5,2.473c.055.055.512.628.648.668-.082-.024.012-.49,0-.474-.267.526-.579,1.033-.87,1.546q-3.705,6.526-7.563,12.967-7.608,12.7-15.789,25.053-4.695,7.086-9.572,14.049a2.421,2.421,0,0,0,.861,3.283,2.449,2.449,0,0,0,3.284-.861Z"/><path class="a" d="M266.026,323.861c-.746-10.132-1.786-20.241-2.66-30.362-.584-6.77-1.225-13.427-.47-20.2,1.889-16.949,5.768-34.082,8.475-51.1.935-5.883,1.82-11.774,2.8-17.649a92.142,92.142,0,0,1,2.389-11.753c.9-2.961-3.728-4.227-4.629-1.276a82.139,82.139,0,0,0-2.119,10.158c-.875,5.109-1.654,10.234-2.457,15.354-1.425,9.087-3.085,18.118-4.726,27.167-1.576,8.688-3.056,17.405-4.18,26.165a70.081,70.081,0,0,0-.8,9.281c.021,3.48.349,6.967.631,10.432.918,11.266,2.118,22.508,2.948,33.781a2.459,2.459,0,0,0,2.4,2.4,2.42,2.42,0,0,0,2.4-2.4Z"/><path class="a" d="M118.852,192.209c-.087-.644.046.352.071.536q.072.55.143,1.1.181,1.392.358,2.785.417,3.258.836,6.515,1.041,8.055,2.17,16.1c1.333,9.4,2.895,18.75,4.594,28.087,1.472,8.087,3.031,16.593,4.044,24.487a56.56,56.56,0,0,1,.64,8.755c-.1,3.545-.411,7.087-.705,10.62-.908,10.893-2.054,21.767-2.857,32.669a2.4,2.4,0,1,0,4.8,0c.721-9.792,1.718-19.563,2.572-29.343.585-6.692,1.387-13.415.658-20.12-1.9-17.448-5.921-34.635-8.476-51.992-1.543-10.474-2.807-20.982-4.219-31.473a2.416,2.416,0,0,0-2.953-1.677,2.466,2.466,0,0,0-1.676,2.953Z"/><path class="a" d="M162.286,157.085c8.376,24.917,16.841,49.789,25.979,74.438,2.647,7.139,5.3,14.275,7.871,21.441a2.462,2.462,0,0,0,2.952,1.676,2.42,2.42,0,0,0,1.676-2.952c-4.583-12.768-9.42-25.442-14.027-38.2-4.453-12.331-8.7-24.735-12.906-37.151q-3.474-10.258-6.916-20.527c-.979-2.913-5.617-1.664-4.629,1.276Z"/><path class="a" d="M182.988,242.672q-17.053-24.368-31.862-50.207-.533-.93-1.061-1.862c-.157-.276-.314-.551-.47-.828-.062-.11-.418-.923-.381-.594.007.063.045.3-.016.351.343-.3.657-.679.976-1q.66-.667,1.332-1.322c2.02-1.972,4.111-3.871,6.211-5.758a2.421,2.421,0,0,0-.486-3.769c-1.513-.9-3.011-1.825-4.533-2.709a41.749,41.749,0,0,1-4.2-2.284l.861.861-.163-.259.327,1.212c0,.18.25-.376.29-.45q.234-.436.481-.866.494-.855,1.039-1.679a30.493,30.493,0,0,1,2.258-3,48.167,48.167,0,0,1,5.759-5.631,33.816,33.816,0,0,1,3.415-2.543l2.9-1.963c2.543-1.723.144-5.883-2.423-4.144a66.626,66.626,0,0,0-11.973,9.682,42.005,42.005,0,0,0-3.635,4.521,17.688,17.688,0,0,0-2.819,5.039c-.731,2.774,1.931,3.7,3.842,4.737,2.093,1.132,4.107,2.405,6.153,3.619l-.486-3.769c-1.984,1.782-3.958,3.575-5.874,5.43-1.734,1.679-4.155,3.486-3.976,6.15a8.349,8.349,0,0,0,1.447,3.39q1.058,1.864,2.129,3.721,1.9,3.3,3.848,6.583,8.093,13.662,16.848,26.918,4.947,7.493,10.1,14.847a2.464,2.464,0,0,0,3.283.861,2.42,2.42,0,0,0,.861-3.284Z"/><path class="a" d="M106.6,254.185c-5.951-13.172-11.388-26.555-16.843-39.938a2.446,2.446,0,0,0-3.525-1.434q-8.433,4.434-17.211,8.18a97.819,97.819,0,0,1-17,5.842,2.423,2.423,0,0,0-1.677,2.953c3.082,9.873,6.05,19.785,9.463,29.551,1.761,5.041,3.64,10.042,5.706,14.968a95.607,95.607,0,0,0,5.739,11.9c4.238,7.148,10.143,13.386,18.187,16.079a31.791,31.791,0,0,0,26.493-3.01c8.123-5,13.836-13.311,19.65-20.665a2.477,2.477,0,0,0,0-3.394,2.416,2.416,0,0,0-3.394,0c-4.954,6.266-9.754,13.081-16.052,18.093a26.955,26.955,0,0,1-22.943,5.044c-7.492-1.757-13.02-6.944-17.032-13.317-4.794-7.616-7.927-16.318-10.941-24.751-3.746-10.481-6.932-21.15-10.247-31.772L53.3,231.464a102.84,102.84,0,0,0,17.782-6.17q8.957-3.8,17.579-8.336l-3.525-1.435c5.61,13.766,11.2,27.535,17.326,41.084a2.417,2.417,0,0,0,3.284.861,2.457,2.457,0,0,0,.861-3.283Z"/><path class="a" d="M189.2,120.339a19.408,19.408,0,0,0,9.349,2.163,15.2,15.2,0,0,0,9.428-2.778,2.413,2.413,0,0,0,0-3.394,2.462,2.462,0,0,0-3.394,0c.726-.565.155-.128-.032-.008s-.381.232-.579.335c-.163.086-.874.368-.22.126-.266.1-.529.2-.8.291a14.018,14.018,0,0,1-2.235.51c.35-.052-.086.006-.222.02-.219.021-.439.04-.659.054-.529.034-1.059.047-1.589.044-.474,0-.949-.019-1.422-.051-.218-.015-.435-.032-.652-.054-.018,0-.8-.11-.323-.035a16.028,16.028,0,0,1-2.089-.464c-.292-.087-.577-.192-.866-.291-.616-.211.344.179-.212-.083q-.537-.253-1.061-.53a2.453,2.453,0,0,0-3.284.861,2.427,2.427,0,0,0,.861,3.284Z"/><path class="a" d="M197.345,98.3a44,44,0,0,1,1.035,4.732l-.086-.638a2.852,2.852,0,0,1,.018.653l.085-.638a1.485,1.485,0,0,1-.072.294l.242-.574a1.115,1.115,0,0,1-.1.189l.375-.486a.975.975,0,0,1-.155.153l.486-.375a3.189,3.189,0,0,1-.375.2l.574-.242a2.741,2.741,0,0,1-.632.184l.638-.085a2.557,2.557,0,0,1-.593,0l.638.085c-.224-.031-.443-.085-.667-.115a1.812,1.812,0,0,0-.957-.043,1.777,1.777,0,0,0-.892.285,2.4,2.4,0,0,0-.861,3.283,2.3,2.3,0,0,0,1.434,1.1c.507.068,1,.2,1.514.22a4.843,4.843,0,0,0,2.227-.529A3.212,3.212,0,0,0,203,103.833a5.344,5.344,0,0,0-.023-2.283c-.258-1.524-.61-3.035-1-4.53a2.4,2.4,0,1,0-4.629,1.276Z"/><path class="a" d="M172.3,84.9c-.791,2.568-.276,8.476,4.59,8.979,6.43-.039,6.772-7.181,4.607-10.539C179.724,80.591,174.513,79.448,172.3,84.9Z"/><path class="a" d="M223.792,84.9c.79,2.568.275,8.475-4.59,8.978-6.43-.039-6.772-7.181-4.608-10.539C216.366,80.591,221.578,79.448,223.792,84.9Z"/></svg>