<?xml version="1.0" encoding="iso-8859-1"?>
<!-- Uploaded to: SVG Repo, www.svgrepo.com, Generator: SVG Repo Mixer Tools -->
<svg height="800px" width="800px" version="1.1" id="Layer_1" xmlns="http://www.w3.org/2000/svg" xmlns:xlink="http://www.w3.org/1999/xlink" 
	 viewBox="0 0 512 512" xml:space="preserve">
<g transform="translate(1 1)">
	<g>
		<path style="fill:#FFE100;" d="M263.533,451.267c-5.12,0-8.533-3.413-8.533-8.533V323.267c0-5.12,3.413-8.533,8.533-8.533
			c5.12,0,8.533,3.413,8.533,8.533v119.467C272.067,447.853,268.653,451.267,263.533,451.267z"/>
		<path style="fill:#FFE100;" d="M442.733,451.267c-5.12,0-8.533-3.413-8.533-8.533V434.2c0-28.16-23.04-51.2-51.2-51.2H144.067
			c-28.16,0-51.2,23.04-51.2,51.2v8.533c0,5.12-3.413,8.533-8.533,8.533c-5.12,0-8.533-3.413-8.533-8.533V434.2
			c0-37.547,30.72-68.267,68.267-68.267H383c37.547,0,68.267,30.72,68.267,68.267v8.533
			C451.267,447.853,447.853,451.267,442.733,451.267z"/>
		<path style="fill:#FFE100;" d="M263.533,212.333c-5.12,0-8.533-3.413-8.533-8.533V84.333c0-5.12,3.413-8.533,8.533-8.533
			c5.12,0,8.533,3.413,8.533,8.533V203.8C272.067,208.92,268.653,212.333,263.533,212.333z"/>
		<path style="fill:#FFE100;" d="M383,161.133H144.067c-37.547,0-68.267-30.72-68.267-68.267v-8.533c0-5.12,3.413-8.533,8.533-8.533
			c5.12,0,8.533,3.413,8.533,8.533v8.533c0,28.16,23.04,51.2,51.2,51.2H383c28.16,0,51.2-23.04,51.2-51.2v-8.533
			c0-5.12,3.413-8.533,8.533-8.533c5.12,0,8.533,3.413,8.533,8.533v8.533C451.267,130.413,420.547,161.133,383,161.133z"/>
		<path style="fill:#FFE100;" d="M391.533,314.733H118.467c-9.387,0-17.067-7.68-17.067-17.067v-85.333
			c0-9.387,7.68-17.067,17.067-17.067h273.067c9.387,0,17.067,7.68,17.067,17.067v85.333
			C408.6,307.053,400.92,314.733,391.533,314.733"/>
	</g>
	<path style="fill:#FFA800;" d="M391.533,195.267h-25.6c9.387,0,17.067,7.68,17.067,17.067v85.333
		c0,9.387-7.68,17.067-17.067,17.067h25.6c9.387,0,17.067-7.68,17.067-17.067v-85.333C408.6,202.947,400.92,195.267,391.533,195.267
		"/>
	<path style="fill:#FFFFFF;" d="M118.467,195.267h25.6c-9.387,0-17.067,7.68-17.067,17.067v85.333
		c0,9.387,7.68,17.067,17.067,17.067h-25.6c-9.387,0-17.067-7.68-17.067-17.067v-85.333
		C101.4,202.947,109.08,195.267,118.467,195.267"/>
	<g>
		<polygon style="fill:#00DA6C;" points="24.6,502.467 127,502.467 127,434.2 24.6,434.2 		"/>
		<polygon style="fill:#00DA6C;" points="203.8,502.467 306.2,502.467 306.2,434.2 203.8,434.2 		"/>
		<polygon style="fill:#00DA6C;" points="383,502.467 485.4,502.467 485.4,434.2 383,434.2 		"/>
		<polygon style="fill:#00DA6C;" points="383,75.8 485.4,75.8 485.4,7.533 383,7.533 		"/>
	</g>
	<g>
		<polygon style="fill:#00AD55;" points="459.8,75.8 485.4,75.8 485.4,7.533 459.8,7.533 		"/>
		<polygon style="fill:#00AD55;" points="459.8,502.467 485.4,502.467 485.4,434.2 459.8,434.2 		"/>
	</g>
	<g>
		<polygon style="fill:#00DA6C;" points="203.8,75.8 306.2,75.8 306.2,7.533 203.8,7.533 		"/>
		<polygon style="fill:#00DA6C;" points="24.6,75.8 127,75.8 127,7.533 24.6,7.533 		"/>
	</g>
	<g>
		<polygon style="fill:#FFFFFF;" points="24.6,75.8 50.2,75.8 50.2,7.533 24.6,7.533 		"/>
		<polygon style="fill:#FFFFFF;" points="24.6,502.467 50.2,502.467 50.2,434.2 24.6,434.2 		"/>
	</g>
	<path d="M255,442.733c-5.12,0-8.533-3.413-8.533-8.533V314.733c0-5.12,3.413-8.533,8.533-8.533s8.533,3.413,8.533,8.533V434.2
		C263.533,439.32,260.12,442.733,255,442.733z"/>
	<path d="M434.2,442.733c-5.12,0-8.533-3.413-8.533-8.533v-8.533c0-28.16-23.04-51.2-51.2-51.2H135.533
		c-28.16,0-51.2,23.04-51.2,51.2v8.533c0,5.12-3.413,8.533-8.533,8.533c-5.12,0-8.533-3.413-8.533-8.533v-8.533
		c0-37.547,30.72-68.267,68.267-68.267h238.933c37.547,0,68.267,30.72,68.267,68.267v8.533
		C442.733,439.32,439.32,442.733,434.2,442.733z"/>
	<path d="M391.533,323.267H118.467c-14.507,0-25.6-11.093-25.6-25.6v-85.333c0-14.507,11.093-25.6,25.6-25.6h273.067
		c14.507,0,25.6,11.093,25.6,25.6v85.333C417.133,312.173,406.04,323.267,391.533,323.267z M118.467,203.8
		c-5.12,0-8.533,3.413-8.533,8.533v85.333c0,5.12,3.413,8.533,8.533,8.533h273.067c5.12,0,8.533-3.413,8.533-8.533v-85.333
		c0-5.12-3.413-8.533-8.533-8.533H118.467z"/>
	<path d="M127,511H24.6c-5.12,0-8.533-3.413-8.533-8.533V434.2c0-5.12,3.413-8.533,8.533-8.533H127c5.12,0,8.533,3.413,8.533,8.533
		v68.267C135.533,507.587,132.12,511,127,511z M33.133,493.933h85.333v-51.2H33.133V493.933z"/>
	<path d="M306.2,511H203.8c-5.12,0-8.533-3.413-8.533-8.533V434.2c0-5.12,3.413-8.533,8.533-8.533h102.4
		c5.12,0,8.533,3.413,8.533,8.533v68.267C314.733,507.587,311.32,511,306.2,511z M212.333,493.933h85.333v-51.2h-85.333V493.933z"/>
	<path d="M485.4,511H383c-5.12,0-8.533-3.413-8.533-8.533V434.2c0-5.12,3.413-8.533,8.533-8.533h102.4
		c5.12,0,8.533,3.413,8.533,8.533v68.267C493.933,507.587,490.52,511,485.4,511z M391.533,493.933h85.333v-51.2h-85.333V493.933z"/>
	<path d="M255,203.8c-5.12,0-8.533-3.413-8.533-8.533V75.8c0-5.12,3.413-8.533,8.533-8.533s8.533,3.413,8.533,8.533v119.467
		C263.533,200.387,260.12,203.8,255,203.8z"/>
	<path d="M374.467,152.6H135.533c-37.547,0-68.267-30.72-68.267-68.267V75.8c0-5.12,3.413-8.533,8.533-8.533
		c5.12,0,8.533,3.413,8.533,8.533v8.533c0,28.16,23.04,51.2,51.2,51.2h238.933c28.16,0,51.2-23.04,51.2-51.2V75.8
		c0-5.12,3.413-8.533,8.533-8.533c5.12,0,8.533,3.413,8.533,8.533v8.533C442.733,121.88,412.013,152.6,374.467,152.6z"/>
	<path d="M485.4,84.333H383c-5.12,0-8.533-3.413-8.533-8.533V7.533C374.467,2.413,377.88-1,383-1h102.4
		c5.12,0,8.533,3.413,8.533,8.533V75.8C493.933,80.92,490.52,84.333,485.4,84.333z M391.533,67.267h85.333v-51.2h-85.333V67.267z"/>
	<path d="M306.2,84.333H203.8c-5.12,0-8.533-3.413-8.533-8.533V7.533c0-5.12,3.413-8.533,8.533-8.533h102.4
		c5.12,0,8.533,3.413,8.533,8.533V75.8C314.733,80.92,311.32,84.333,306.2,84.333z M212.333,67.267h85.333v-51.2h-85.333V67.267z"/>
	<path d="M127,84.333H24.6c-5.12,0-8.533-3.413-8.533-8.533V7.533C16.067,2.413,19.48-1,24.6-1H127c5.12,0,8.533,3.413,8.533,8.533
		V75.8C135.533,80.92,132.12,84.333,127,84.333z M33.133,67.267h85.333v-51.2H33.133V67.267z"/>
</g>
</svg>