<?xml version="1.0" encoding="utf-8"?>
<!-- Generator: Adobe Illustrator 27.5.0, SVG Export Plug-In . SVG Version: 6.00 Build 0)  -->
<svg version="1.1" xmlns="http://www.w3.org/2000/svg" xmlns:xlink="http://www.w3.org/1999/xlink" x="0px" y="0px"
	 viewBox="0 0 500 500" style="enable-background:new 0 0 500 500;" xml:space="preserve">
<g id="Background_Complete">
	<g>
		<rect y="382.398" style="fill:#EBEBEB;" width="500" height="0.25"/>
		<rect x="416.779" y="398.494" style="fill:#EBEBEB;" width="33.122" height="0.25"/>
		<rect x="322.527" y="401.208" style="fill:#EBEBEB;" width="8.693" height="0.25"/>
		<rect x="396.586" y="389.208" style="fill:#EBEBEB;" width="19.192" height="0.25"/>
		<rect x="52.459" y="390.888" style="fill:#EBEBEB;" width="43.193" height="0.25"/>
		<rect x="104.556" y="390.888" style="fill:#EBEBEB;" width="6.333" height="0.25"/>
		<rect x="131.471" y="395.111" style="fill:#EBEBEB;" width="93.676" height="0.25"/>
		<path style="fill:#EBEBEB;" d="M237.014,337.8H43.915c-3.147,0-5.708-2.561-5.708-5.708V60.66c0-3.147,2.561-5.708,5.708-5.708
			h193.099c3.146,0,5.707,2.561,5.707,5.708v271.432C242.721,335.239,240.16,337.8,237.014,337.8z M43.915,55.203
			c-3.01,0-5.458,2.448-5.458,5.458v271.432c0,3.01,2.448,5.458,5.458,5.458h193.099c3.009,0,5.457-2.448,5.457-5.458V60.66
			c0-3.009-2.448-5.458-5.457-5.458H43.915z"/>
		<path style="fill:#EBEBEB;" d="M453.31,337.8H260.212c-3.147,0-5.707-2.561-5.707-5.708V60.66c0-3.147,2.561-5.708,5.707-5.708
			H453.31c3.148,0,5.708,2.561,5.708,5.708v271.432C459.019,335.239,456.458,337.8,453.31,337.8z M260.212,55.203
			c-3.009,0-5.457,2.448-5.457,5.458v271.432c0,3.01,2.448,5.458,5.457,5.458H453.31c3.01,0,5.458-2.448,5.458-5.458V60.66
			c0-3.009-2.448-5.458-5.458-5.458H260.212z"/>
	</g>
	<g>
		<path style="fill:#F0F0F0;" d="M207,127.667c0-6.259-5.074-11.333-11.333-11.333c-1.132,0-2.223,0.171-3.254,0.48
			c0.165-1.136,0.254-2.298,0.254-3.48c0-13.255-10.745-24-24-24c-1.511,0-2.987,0.146-4.421,0.413
			c-3.689-6.037-10.32-10.08-17.912-10.08c-11.492,0-20.813,9.233-20.984,20.684c-0.118-0.002-0.232-0.018-0.349-0.018
			c-10.677,0-19.333,8.656-19.333,19.333c0,10.678,8.656,19.333,19.333,19.333h71l-0.014-0.016
			C202.096,138.814,207,133.818,207,127.667z"/>
		<path style="fill:#F0F0F0;" d="M285,178.371c0-3.109-2.52-5.629-5.629-5.629c-0.562,0-1.104,0.085-1.616,0.238
			c0.082-0.565,0.126-1.141,0.126-1.728c0-6.584-5.337-11.921-11.921-11.921c-0.75,0-1.484,0.073-2.196,0.205
			c-1.832-2.999-5.126-5.007-8.897-5.007c-5.708,0-10.338,4.586-10.423,10.274c-0.058-0.001-0.115-0.009-0.173-0.009
			c-5.304,0-9.603,4.299-9.603,9.603c0,5.304,4.299,9.603,9.603,9.603h35.266l-0.007-0.008C282.564,183.907,285,181.426,285,178.371
			z"/>
		<path style="fill:#F0F0F0;" d="M409.5,123.551c0-1.904-1.544-3.448-3.448-3.448c-0.344,0-0.676,0.052-0.99,0.146
			c0.05-0.346,0.077-0.699,0.077-1.059c0-4.033-3.27-7.303-7.303-7.303c-0.46,0-0.909,0.044-1.345,0.126
			c-1.122-1.837-3.14-3.067-5.45-3.067c-3.497,0-6.333,2.81-6.385,6.294c-0.036-0.001-0.07-0.005-0.106-0.005
			c-3.249,0-5.883,2.634-5.883,5.883s2.634,5.883,5.883,5.883h21.604l-0.004-0.005C408.008,126.943,409.5,125.423,409.5,123.551z"/>
		<g>
			
				<text transform="matrix(1 0 0 1 134.9987 112.9824)" style="fill:#EBEBEB; font-family:'Bebas'; font-size:7px;glyph-orientation-vertical:0;writing-mode:tb;">101010000111110101010101</text>
			
				<text transform="matrix(1 0 0 1 142.4987 112.9824)" style="fill:#EBEBEB; font-family:'Bebas'; font-size:7px;glyph-orientation-vertical:0;writing-mode:tb;">001101100110001101011111</text>
			
				<text transform="matrix(1 0 0 1 149.9987 112.9824)" style="fill:#EBEBEB; font-family:'Bebas'; font-size:7px;glyph-orientation-vertical:0;writing-mode:tb;">111110101010101011110000</text>
			
				<text transform="matrix(1 0 0 1 157.4987 112.9824)" style="fill:#EBEBEB; font-family:'Bebas'; font-size:7px;glyph-orientation-vertical:0;writing-mode:tb;">101010000111110101010101</text>
			
				<text transform="matrix(1 0 0 1 164.9987 112.9824)" style="fill:#EBEBEB; font-family:'Bebas'; font-size:7px;glyph-orientation-vertical:0;writing-mode:tb;">000101011111000000110101</text>
			
				<text transform="matrix(1 0 0 1 172.4987 112.9824)" style="fill:#EBEBEB; font-family:'Bebas'; font-size:7px;glyph-orientation-vertical:0;writing-mode:tb;">110011001101010101001100</text>
		</g>
		<g>
			<rect x="45.5" y="238.652" style="fill:#F5F5F5;" width="226.511" height="144.085"/>
			<rect x="45.5" y="238.652" style="fill:#E0E0E0;" width="226.511" height="9.764"/>
			<path style="fill:#FAFAFA;" d="M268.642,243.534c0,1.624-1.317,2.941-2.941,2.941c-1.624,0-2.941-1.317-2.941-2.941
				c0-1.624,1.317-2.941,2.941-2.941C267.326,240.592,268.642,241.909,268.642,243.534z"/>
			<path style="fill:#FAFAFA;" d="M258.868,243.534c0,1.624-1.317,2.941-2.941,2.941c-1.624,0-2.941-1.317-2.941-2.941
				c0-1.624,1.317-2.941,2.941-2.941C257.551,240.592,258.868,241.909,258.868,243.534z"/>
			<path style="fill:#FAFAFA;" d="M249.093,243.534c0,1.624-1.317,2.941-2.941,2.941s-2.941-1.317-2.941-2.941
				c0-1.624,1.317-2.941,2.941-2.941S249.093,241.909,249.093,243.534z"/>
		</g>
		<g>
			<path style="fill:#E0E0E0;" d="M86.463,265.341l-1.395-1.94c-0.51-0.71-1.326-1.136-2.172-1.136h-9.825
				c-0.846,0-1.612,0.426-2.04,1.136l-1.17,1.94c-0.428,0.71-1.194,1.137-2.04,1.137h-5.863c-1.398,0-2.465,1.143-2.383,2.552
				l1.898,32.813c0.082,1.41,1.281,2.552,2.679,2.552h46.469c1.398,0,2.465-1.143,2.383-2.552l-1.898-32.813
				c-0.082-1.41-1.281-2.552-2.679-2.552H88.635C87.788,266.478,86.973,266.052,86.463,265.341z"/>
			<path style="fill:#E6E6E6;" d="M113.07,269.605H70.497c-1.775,0-3.342,1.427-3.501,3.188l-2.559,28.414
				c-0.159,1.761,1.152,3.188,2.927,3.188h42.572c1.775,0,3.342-1.427,3.501-3.188l2.559-28.414
				C116.155,271.032,114.845,269.605,113.07,269.605z"/>
		</g>
		<g>
			<path style="fill:#E0E0E0;" d="M157.354,265.341l-1.395-1.94c-0.51-0.71-1.326-1.136-2.172-1.136h-9.825
				c-0.846,0-1.612,0.426-2.04,1.136l-1.17,1.94c-0.428,0.71-1.194,1.137-2.04,1.137h-5.863c-1.398,0-2.465,1.143-2.383,2.552
				l1.898,32.813c0.081,1.41,1.281,2.552,2.679,2.552h46.469c1.398,0,2.465-1.143,2.383-2.552l-1.898-32.813
				c-0.082-1.41-1.281-2.552-2.679-2.552h-19.791C158.68,266.478,157.865,266.052,157.354,265.341z"/>
			<path style="fill:#E6E6E6;" d="M183.961,269.605h-42.572c-1.775,0-3.342,1.427-3.501,3.188l-2.559,28.414
				c-0.159,1.761,1.152,3.188,2.927,3.188h42.572c1.775,0,3.342-1.427,3.501-3.188l2.559-28.414
				C187.047,271.032,185.736,269.605,183.961,269.605z"/>
		</g>
		<g>
			<path style="fill:#E0E0E0;" d="M228.246,265.341l-1.395-1.94c-0.511-0.71-1.326-1.136-2.172-1.136h-9.825
				c-0.846,0-1.612,0.426-2.04,1.136l-1.17,1.94c-0.428,0.71-1.194,1.137-2.04,1.137h-5.863c-1.398,0-2.465,1.143-2.383,2.552
				l1.898,32.813c0.082,1.41,1.281,2.552,2.679,2.552h46.469c1.398,0,2.465-1.143,2.384-2.552l-1.898-32.813
				c-0.082-1.41-1.281-2.552-2.679-2.552h-19.791C229.572,266.478,228.757,266.052,228.246,265.341z"/>
			<path style="fill:#E6E6E6;" d="M254.853,269.605h-42.572c-1.775,0-3.342,1.427-3.501,3.188l-2.559,28.414
				c-0.159,1.761,1.152,3.188,2.927,3.188h42.572c1.775,0,3.342-1.427,3.501-3.188l2.559-28.414
				C257.938,271.032,256.628,269.605,254.853,269.605z"/>
		</g>
		<g>
			<path style="fill:#E0E0E0;" d="M86.463,325.379l-1.395-1.94c-0.51-0.71-1.326-1.137-2.172-1.137h-9.825
				c-0.846,0-1.612,0.427-2.04,1.137l-1.17,1.94c-0.428,0.71-1.194,1.137-2.04,1.137h-5.863c-1.398,0-2.465,1.143-2.383,2.552
				l1.898,32.813c0.082,1.41,1.281,2.552,2.679,2.552h46.469c1.398,0,2.465-1.143,2.383-2.552l-1.898-32.813
				c-0.082-1.41-1.281-2.552-2.679-2.552H88.635C87.788,326.516,86.973,326.089,86.463,325.379z"/>
			<path style="fill:#E6E6E6;" d="M113.07,329.643H70.497c-1.775,0-3.342,1.427-3.501,3.188l-2.559,28.414
				c-0.159,1.761,1.152,3.188,2.927,3.188h42.572c1.775,0,3.342-1.427,3.501-3.188l2.559-28.414
				C116.155,331.07,114.845,329.643,113.07,329.643z"/>
		</g>
		<g>
			<path style="fill:#E0E0E0;" d="M157.354,325.379l-1.395-1.94c-0.51-0.71-1.326-1.137-2.172-1.137h-9.825
				c-0.846,0-1.612,0.427-2.04,1.137l-1.17,1.94c-0.428,0.71-1.194,1.137-2.04,1.137h-5.863c-1.398,0-2.465,1.143-2.383,2.552
				l1.898,32.813c0.081,1.41,1.281,2.552,2.679,2.552h46.469c1.398,0,2.465-1.143,2.383-2.552l-1.898-32.813
				c-0.082-1.41-1.281-2.552-2.679-2.552h-19.791C158.68,326.516,157.865,326.089,157.354,325.379z"/>
			<path style="fill:#E6E6E6;" d="M183.961,329.643h-42.572c-1.775,0-3.342,1.427-3.501,3.188l-2.559,28.414
				c-0.159,1.761,1.152,3.188,2.927,3.188h42.572c1.775,0,3.342-1.427,3.501-3.188l2.559-28.414
				C187.047,331.07,185.736,329.643,183.961,329.643z"/>
		</g>
		<g>
			<path style="fill:#E0E0E0;" d="M228.246,325.379l-1.395-1.94c-0.511-0.71-1.326-1.137-2.172-1.137h-9.825
				c-0.846,0-1.612,0.427-2.04,1.137l-1.17,1.94c-0.428,0.71-1.194,1.137-2.04,1.137h-5.863c-1.398,0-2.465,1.143-2.383,2.552
				l1.898,32.813c0.082,1.41,1.281,2.552,2.679,2.552h46.469c1.398,0,2.465-1.143,2.384-2.552l-1.898-32.813
				c-0.082-1.41-1.281-2.552-2.679-2.552h-19.791C229.572,326.516,228.757,326.089,228.246,325.379z"/>
			<path style="fill:#E6E6E6;" d="M254.853,329.643h-42.572c-1.775,0-3.342,1.427-3.501,3.188l-2.559,28.414
				c-0.159,1.761,1.152,3.188,2.927,3.188h42.572c1.775,0,3.342-1.427,3.501-3.188l2.559-28.414
				C257.938,331.07,256.628,329.643,254.853,329.643z"/>
		</g>
		<g>
			<path style="fill:#E6E6E6;" d="M450.025,359.163h-73c-1.473,0-2.667,1.194-2.667,2.667v17.667c0,1.473,1.194,2.667,2.667,2.667
				h73c1.473,0,2.667-1.194,2.667-2.667V361.83C452.691,360.357,451.497,359.163,450.025,359.163z"/>
			<path style="fill:#F5F5F5;" d="M444.962,370.663c0,2.669-2.164,4.833-4.833,4.833c-2.669,0-4.833-2.164-4.833-4.833
				s2.164-4.833,4.833-4.833C442.798,365.83,444.962,367.994,444.962,370.663z"/>
			<path style="fill:#E6E6E6;" d="M442.587,370.663c0,1.358-1.101,2.458-2.458,2.458s-2.458-1.101-2.458-2.458
				s1.101-2.458,2.458-2.458S442.587,369.306,442.587,370.663z"/>
			<rect x="424.275" y="367.913" style="fill:#F5F5F5;" width="5.5" height="5.5"/>
		</g>
		<g>
			<path style="fill:#E6E6E6;" d="M450.025,335.163h-73c-1.473,0-2.667,1.194-2.667,2.667v17.667c0,1.473,1.194,2.667,2.667,2.667
				h73c1.473,0,2.667-1.194,2.667-2.667V337.83C452.691,336.357,451.497,335.163,450.025,335.163z"/>
			<path style="fill:#F5F5F5;" d="M444.962,346.663c0,2.669-2.164,4.833-4.833,4.833c-2.669,0-4.833-2.164-4.833-4.833
				s2.164-4.833,4.833-4.833C442.798,341.83,444.962,343.994,444.962,346.663z"/>
			<path style="fill:#E6E6E6;" d="M442.587,346.663c0,1.358-1.101,2.458-2.458,2.458s-2.458-1.101-2.458-2.458
				s1.101-2.458,2.458-2.458S442.587,345.306,442.587,346.663z"/>
			<rect x="424.275" y="343.913" style="fill:#F5F5F5;" width="5.5" height="5.5"/>
		</g>
		<g>
			<path style="fill:#E6E6E6;" d="M450.025,311.163h-73c-1.473,0-2.667,1.194-2.667,2.667v17.667c0,1.473,1.194,2.667,2.667,2.667
				h73c1.473,0,2.667-1.194,2.667-2.667V313.83C452.691,312.357,451.497,311.163,450.025,311.163z"/>
			<path style="fill:#F5F5F5;" d="M444.962,322.663c0,2.669-2.164,4.833-4.833,4.833c-2.669,0-4.833-2.164-4.833-4.833
				s2.164-4.833,4.833-4.833C442.798,317.83,444.962,319.994,444.962,322.663z"/>
			<path style="fill:#E6E6E6;" d="M442.587,322.663c0,1.358-1.101,2.458-2.458,2.458s-2.458-1.101-2.458-2.458
				s1.101-2.458,2.458-2.458S442.587,321.306,442.587,322.663z"/>
			<rect x="424.275" y="319.913" style="fill:#F5F5F5;" width="5.5" height="5.5"/>
		</g>
		<g>
			<path style="fill:#E6E6E6;" d="M450.025,287.163h-73c-1.473,0-2.667,1.194-2.667,2.667v17.667c0,1.473,1.194,2.667,2.667,2.667
				h73c1.473,0,2.667-1.194,2.667-2.667V289.83C452.691,288.357,451.497,287.163,450.025,287.163z"/>
			<path style="fill:#F5F5F5;" d="M444.962,298.663c0,2.669-2.164,4.833-4.833,4.833c-2.669,0-4.833-2.164-4.833-4.833
				s2.164-4.833,4.833-4.833C442.798,293.83,444.962,295.994,444.962,298.663z"/>
			<path style="fill:#E6E6E6;" d="M442.587,298.663c0,1.358-1.101,2.458-2.458,2.458s-2.458-1.101-2.458-2.458
				s1.101-2.458,2.458-2.458S442.587,297.306,442.587,298.663z"/>
			<rect x="424.275" y="295.913" style="fill:#F5F5F5;" width="5.5" height="5.5"/>
		</g>
		<g>
			<path style="fill:#E6E6E6;" d="M450.025,263.163h-73c-1.473,0-2.667,1.194-2.667,2.667v17.667c0,1.473,1.194,2.667,2.667,2.667
				h73c1.473,0,2.667-1.194,2.667-2.667V265.83C452.691,264.357,451.497,263.163,450.025,263.163z"/>
			<path style="fill:#F5F5F5;" d="M444.962,274.663c0,2.669-2.164,4.833-4.833,4.833c-2.669,0-4.833-2.164-4.833-4.833
				s2.164-4.833,4.833-4.833C442.798,269.83,444.962,271.994,444.962,274.663z"/>
			<path style="fill:#E6E6E6;" d="M442.587,274.663c0,1.358-1.101,2.458-2.458,2.458s-2.458-1.101-2.458-2.458
				s1.101-2.458,2.458-2.458S442.587,273.306,442.587,274.663z"/>
			<rect x="424.275" y="271.913" style="fill:#F5F5F5;" width="5.5" height="5.5"/>
		</g>
		<g>
			<path style="fill:#E6E6E6;" d="M450.025,239.163h-73c-1.473,0-2.667,1.194-2.667,2.667v17.667c0,1.473,1.194,2.667,2.667,2.667
				h73c1.473,0,2.667-1.194,2.667-2.667V241.83C452.691,240.357,451.497,239.163,450.025,239.163z"/>
			<path style="fill:#F5F5F5;" d="M444.962,250.663c0,2.669-2.164,4.833-4.833,4.833c-2.669,0-4.833-2.164-4.833-4.833
				c0-2.669,2.164-4.833,4.833-4.833C442.798,245.83,444.962,247.994,444.962,250.663z"/>
			<path style="fill:#E6E6E6;" d="M442.587,250.663c0,1.358-1.101,2.458-2.458,2.458s-2.458-1.101-2.458-2.458
				c0-1.358,1.101-2.458,2.458-2.458S442.587,249.305,442.587,250.663z"/>
			<rect x="424.275" y="247.913" style="fill:#F5F5F5;" width="5.5" height="5.5"/>
		</g>
	</g>
</g>
<g id="Backgorund_Simple" style="display:none;">
	<g style="display:inline;">
		<path style="fill:#407BFF;" d="M115.113,101.225c3.776-3.51,7.987-6.528,12.61-8.897c51.244-26.252,96.297,27.531,115.519,68.962
			c8.999,19.397,17.344,40.946,35.52,52.215c23.146,14.349,50.683,8.868,75.544,16.416c26.043,7.906,49.4,34.578,49.759,62.493
			c0.407,31.584-29.375,44.734-55.328,51.441c-37.611,9.72-77.38,9.846-114.889-0.502
			c-73.999-20.416-128.797-78.426-140.452-155.099C88.896,158.65,91.983,122.727,115.113,101.225z"/>
		<path style="opacity:0.9;fill:#FFFFFF;" d="M115.113,101.225c3.776-3.51,7.987-6.528,12.61-8.897
			c51.244-26.252,96.297,27.531,115.519,68.962c8.999,19.397,17.344,40.946,35.52,52.215c23.146,14.349,50.683,8.868,75.544,16.416
			c26.043,7.906,49.4,34.578,49.759,62.493c0.407,31.584-29.375,44.734-55.328,51.441c-37.611,9.72-77.38,9.846-114.889-0.502
			c-73.999-20.416-128.797-78.426-140.452-155.099C88.896,158.65,91.983,122.727,115.113,101.225z"/>
	</g>
</g>
<g id="Shadow_1_">
	<ellipse id="_x3C_Path_x3E__359_" style="fill:#F5F5F5;" cx="250" cy="416.238" rx="193.889" ry="11.323"/>
</g>
<g id="Plant">
	<g>
		<g>
			<path style="fill:#407BFF;" d="M103.539,357.175c-1.555-2.561-4.116-0.334-4.116-0.334c0.366-4.907-4.149-8.263-4.149-8.263
				s5.246,0,5.978-5.005c0.732-5.005-1.829-2.677-4.232-2.711c-2.403-0.034-4.914,6.985-1.746,10.933
				c3.169,3.948,2.319,10.686-4.997,17.167c-1.785,1.581-2.998,3.686-3.818,5.963c0.552-5.954,0.864-14.343-0.888-19.944
				c-2.976-9.512,2.695-12.073,4.341-16.829c1.646-4.756-4.341-8.78-4.341-8.78s5.622-2.561,2.878-5.488
				c-2.744-2.927-8.414-2.528-8.414,1.297c0,3.825,3.841,5.289,3.841,5.289s4.39,4.573,4.39,6.951c0,2.378-4.39,7.5-4.39,7.5
				s2.012-4.384-2.012-4.57c-4.024-0.186-5.305,5.118-3.659,7.496c1.646,2.378,4.39,0.366,4.39,0.366s0.32,5.122,1.257,8.231
				c0.412,1.368,0.219,6.733-0.128,12.315c-0.811-2.016-1.957-3.862-3.563-5.285c-7.317-6.481-8.166-13.219-4.997-17.167
				s0.657-10.967-1.746-10.933c-2.403,0.034-4.964-2.294-4.232,2.711s5.978,5.005,5.978,5.005s-4.514,3.357-4.148,8.263
				c0,0-2.561-2.227-4.116,0.334c-2.776,4.572,3.658,7.408,4.74,5.158c0,0,13.644,9.659,10.351,23.561l0.765,1.129
				c-0.098,1.122-0.16,1.798-0.16,1.798l1.067-0.459l1.214,1.792c-0.063,3.475,0.311,6.043,0.311,6.043l3.262-4.815
				c-3.293-13.902,10.351-23.56,10.351-23.56C99.881,364.584,106.315,361.748,103.539,357.175z"/>
			<path style="opacity:0.2;fill:#407BFF;enable-background:new    ;" d="M103.539,357.175c-1.555-2.561-4.116-0.334-4.116-0.334
				c0.366-4.907-4.149-8.263-4.149-8.263s5.246,0,5.978-5.005c0.732-5.005-1.829-2.677-4.232-2.711
				c-2.403-0.034-4.914,6.985-1.746,10.933c3.169,3.948,2.319,10.686-4.997,17.167c-1.785,1.581-2.998,3.686-3.818,5.963
				c0.552-5.954,0.864-14.343-0.888-19.944c-2.976-9.512,2.695-12.073,4.341-16.829c1.646-4.756-4.341-8.78-4.341-8.78
				s5.622-2.561,2.878-5.488c-2.744-2.927-8.414-2.528-8.414,1.297c0,3.825,3.841,5.289,3.841,5.289s4.39,4.573,4.39,6.951
				c0,2.378-4.39,7.5-4.39,7.5s2.012-4.384-2.012-4.57c-4.024-0.186-5.305,5.118-3.659,7.496c1.646,2.378,4.39,0.366,4.39,0.366
				s0.32,5.122,1.257,8.231c0.412,1.368,0.219,6.733-0.128,12.315c-0.811-2.016-1.957-3.862-3.563-5.285
				c-7.317-6.481-8.166-13.219-4.997-17.167s0.657-10.967-1.746-10.933c-2.403,0.034-4.964-2.294-4.232,2.711
				s5.978,5.005,5.978,5.005s-4.514,3.357-4.148,8.263c0,0-2.561-2.227-4.116,0.334c-2.776,4.572,3.658,7.408,4.74,5.158
				c0,0,13.644,9.659,10.351,23.561l0.765,1.129c-0.098,1.122-0.16,1.798-0.16,1.798l1.067-0.459l1.214,1.792
				c-0.063,3.475,0.311,6.043,0.311,6.043l3.262-4.815c-3.293-13.902,10.351-23.56,10.351-23.56
				C99.881,364.584,106.315,361.748,103.539,357.175z"/>
		</g>
		<g style="opacity:0.3;">
			<path style="fill:#FFFFFF;" d="M103.539,357.175c-1.555-2.561-4.116-0.334-4.116-0.334c0.366-4.907-4.149-8.263-4.149-8.263
				s5.246,0,5.978-5.005c0.732-5.005-1.829-2.677-4.232-2.711c-2.403-0.034-4.914,6.985-1.746,10.933
				c3.169,3.948,2.319,10.686-4.997,17.167c-1.785,1.581-2.998,3.686-3.818,5.963c0.552-5.954,0.864-14.343-0.888-19.944
				c-2.976-9.512,2.695-12.073,4.341-16.829c1.646-4.756-4.341-8.78-4.341-8.78s5.622-2.561,2.878-5.488
				c-2.744-2.927-8.414-2.528-8.414,1.297c0,3.825,3.841,5.289,3.841,5.289s4.39,4.573,4.39,6.951c0,2.378-4.39,7.5-4.39,7.5
				s2.012-4.384-2.012-4.57c-4.024-0.186-5.305,5.118-3.659,7.496c1.646,2.378,4.39,0.366,4.39,0.366s0.32,5.122,1.257,8.231
				c0.412,1.368,0.219,6.733-0.128,12.315c-0.811-2.016-1.957-3.862-3.563-5.285c-7.317-6.481-8.166-13.219-4.997-17.167
				s0.657-10.967-1.746-10.933c-2.403,0.034-4.964-2.294-4.232,2.711s5.978,5.005,5.978,5.005s-4.514,3.357-4.148,8.263
				c0,0-2.561-2.227-4.116,0.334c-2.776,4.572,3.658,7.408,4.74,5.158c0,0,13.644,9.659,10.351,23.561l0.765,1.129
				c-0.098,1.122-0.16,1.798-0.16,1.798l1.067-0.459l1.214,1.792c-0.063,3.475,0.311,6.043,0.311,6.043l3.262-4.815
				c-3.293-13.902,10.351-23.56,10.351-23.56C99.881,364.584,106.315,361.748,103.539,357.175z"/>
			<path style="opacity:0.2;fill:#FFFFFF;enable-background:new    ;" d="M103.539,357.175c-1.555-2.561-4.116-0.334-4.116-0.334
				c0.366-4.907-4.149-8.263-4.149-8.263s5.246,0,5.978-5.005c0.732-5.005-1.829-2.677-4.232-2.711
				c-2.403-0.034-4.914,6.985-1.746,10.933c3.169,3.948,2.319,10.686-4.997,17.167c-1.785,1.581-2.998,3.686-3.818,5.963
				c0.552-5.954,0.864-14.343-0.888-19.944c-2.976-9.512,2.695-12.073,4.341-16.829c1.646-4.756-4.341-8.78-4.341-8.78
				s5.622-2.561,2.878-5.488c-2.744-2.927-8.414-2.528-8.414,1.297c0,3.825,3.841,5.289,3.841,5.289s4.39,4.573,4.39,6.951
				c0,2.378-4.39,7.5-4.39,7.5s2.012-4.384-2.012-4.57c-4.024-0.186-5.305,5.118-3.659,7.496c1.646,2.378,4.39,0.366,4.39,0.366
				s0.32,5.122,1.257,8.231c0.412,1.368,0.219,6.733-0.128,12.315c-0.811-2.016-1.957-3.862-3.563-5.285
				c-7.317-6.481-8.166-13.219-4.997-17.167s0.657-10.967-1.746-10.933c-2.403,0.034-4.964-2.294-4.232,2.711
				s5.978,5.005,5.978,5.005s-4.514,3.357-4.148,8.263c0,0-2.561-2.227-4.116,0.334c-2.776,4.572,3.658,7.408,4.74,5.158
				c0,0,13.644,9.659,10.351,23.561l0.765,1.129c-0.098,1.122-0.16,1.798-0.16,1.798l1.067-0.459l1.214,1.792
				c-0.063,3.475,0.311,6.043,0.311,6.043l3.262-4.815c-3.293-13.902,10.351-23.56,10.351-23.56
				C99.881,364.584,106.315,361.748,103.539,357.175z"/>
		</g>
		<polygon style="fill:#407BFF;" points="100.87,416.477 69.617,416.477 66.246,382.26 104.242,382.26 		"/>
		<polygon style="opacity:0.5;fill:#FFFFFF;" points="100.87,416.477 69.617,416.477 66.246,382.26 104.242,382.26 		"/>
		<rect x="64.577" y="378.484" style="fill:#407BFF;" width="41.333" height="7.55"/>
		<rect x="64.577" y="378.484" style="opacity:0.6;fill:#FFFFFF;" width="41.333" height="7.55"/>
	</g>
</g>
<g id="Folder">
	<g>
		<path style="fill:#407BFF;" d="M387.867,377.423l-1.395-1.94c-0.51-0.71-1.326-1.137-2.172-1.137h-9.825
			c-0.846,0-1.612,0.426-2.04,1.137l-1.17,1.94c-0.428,0.71-1.194,1.137-2.04,1.137h-5.863c-1.398,0-2.465,1.143-2.383,2.552
			l1.898,32.813c0.082,1.41,1.281,2.552,2.679,2.552h46.469c1.398,0,2.465-1.142,2.383-2.552l-1.898-32.813
			c-0.082-1.409-1.281-2.552-2.679-2.552h-19.791C389.193,378.56,388.378,378.133,387.867,377.423z"/>
		<path style="opacity:0.5;fill:#FFFFFF;" d="M387.867,377.423l-1.395-1.94c-0.51-0.71-1.326-1.137-2.172-1.137h-9.825
			c-0.846,0-1.612,0.426-2.04,1.137l-1.17,1.94c-0.428,0.71-1.194,1.137-2.04,1.137h-5.863c-1.398,0-2.465,1.143-2.383,2.552
			l1.898,32.813c0.082,1.41,1.281,2.552,2.679,2.552h46.469c1.398,0,2.465-1.142,2.383-2.552l-1.898-32.813
			c-0.082-1.409-1.281-2.552-2.679-2.552h-19.791C389.193,378.56,388.378,378.133,387.867,377.423z"/>
		<path style="fill:#407BFF;" d="M414.474,381.687h-42.572c-1.775,0-3.342,1.427-3.501,3.188l-2.559,28.414
			c-0.159,1.761,1.152,3.188,2.927,3.188h42.572c1.775,0,3.342-1.427,3.501-3.188l2.559-28.414
			C417.559,383.114,416.249,381.687,414.474,381.687z"/>
		<path style="opacity:0.7;fill:#FFFFFF;" d="M414.474,381.687h-42.572c-1.775,0-3.342,1.427-3.501,3.188l-2.559,28.414
			c-0.159,1.761,1.152,3.188,2.927,3.188h42.572c1.775,0,3.342-1.427,3.501-3.188l2.559-28.414
			C417.559,383.114,416.249,381.687,414.474,381.687z"/>
	</g>
</g>
<g id="Data_Storage">
	<g>
		<rect x="230.124" y="366.665" style="fill:#263238;" width="60.763" height="42.431"/>
		<g>
			<path style="fill:#407BFF;" d="M291.549,402.265H246.44c-0.91,0-1.648,0.738-1.648,1.648v10.917c0,0.91,0.738,1.648,1.648,1.648
				h45.109c0.91,0,1.648-0.738,1.648-1.648v-10.917C293.197,403.002,292.459,402.265,291.549,402.265z"/>
			<path style="opacity:0.2;enable-background:new    ;" d="M291.549,402.265H246.44c-0.91,0-1.648,0.738-1.648,1.648v10.917
				c0,0.91,0.738,1.648,1.648,1.648h45.109c0.91,0,1.648-0.738,1.648-1.648v-10.917
				C293.197,403.002,292.459,402.265,291.549,402.265z"/>
			<path style="fill:#407BFF;" d="M275.061,402.265h-45.109c-0.91,0-1.648,0.738-1.648,1.648v10.917c0,0.91,0.738,1.648,1.648,1.648
				h45.109c0.91,0,1.648-0.738,1.648-1.648v-10.917C276.708,403.002,275.971,402.265,275.061,402.265z"/>
			<path style="opacity:0.3;fill:#F5F5F5;" d="M271.932,409.371c0,1.65-1.337,2.987-2.987,2.987s-2.987-1.337-2.987-2.987
				c0-1.649,1.337-2.987,2.987-2.987S271.932,407.721,271.932,409.371z"/>
			<circle style="fill:#407BFF;" cx="268.946" cy="409.371" r="1.519"/>
			<rect x="259.149" y="407.672" style="opacity:0.3;fill:#F5F5F5;" width="3.399" height="3.399"/>
		</g>
		<g>
			<path style="fill:#407BFF;" d="M291.549,387.425H246.44c-0.91,0-1.648,0.738-1.648,1.648v10.917c0,0.91,0.738,1.648,1.648,1.648
				h45.109c0.91,0,1.648-0.738,1.648-1.648v-10.917C293.197,388.163,292.459,387.425,291.549,387.425z"/>
			<path style="opacity:0.2;enable-background:new    ;" d="M291.549,387.425H246.44c-0.91,0-1.648,0.738-1.648,1.648v10.917
				c0,0.91,0.738,1.648,1.648,1.648h45.109c0.91,0,1.648-0.738,1.648-1.648v-10.917
				C293.197,388.163,292.459,387.425,291.549,387.425z"/>
			<path style="fill:#407BFF;" d="M275.061,387.425h-45.109c-0.91,0-1.648,0.738-1.648,1.648v10.917c0,0.91,0.738,1.648,1.648,1.648
				h45.109c0.91,0,1.648-0.738,1.648-1.648v-10.917C276.708,388.163,275.971,387.425,275.061,387.425z"/>
			<path style="opacity:0.3;fill:#F5F5F5;" d="M271.932,394.531c0,1.649-1.337,2.987-2.987,2.987s-2.987-1.337-2.987-2.987
				c0-1.65,1.337-2.987,2.987-2.987S271.932,392.882,271.932,394.531z"/>
			<path style="fill:#407BFF;" d="M270.465,394.531c0,0.839-0.68,1.519-1.519,1.519c-0.839,0-1.519-0.68-1.519-1.519
				c0-0.839,0.68-1.519,1.519-1.519C269.785,393.012,270.465,393.692,270.465,394.531z"/>
			<rect x="259.149" y="392.832" style="opacity:0.3;fill:#F5F5F5;" width="3.399" height="3.399"/>
		</g>
		<g>
			<path style="fill:#407BFF;" d="M291.549,372.586H246.44c-0.91,0-1.648,0.738-1.648,1.648v10.917c0,0.91,0.738,1.648,1.648,1.648
				h45.109c0.91,0,1.648-0.738,1.648-1.648v-10.917C293.197,373.323,292.459,372.586,291.549,372.586z"/>
			<path style="opacity:0.2;enable-background:new    ;" d="M291.549,372.586H246.44c-0.91,0-1.648,0.738-1.648,1.648v10.917
				c0,0.91,0.738,1.648,1.648,1.648h45.109c0.91,0,1.648-0.738,1.648-1.648v-10.917
				C293.197,373.323,292.459,372.586,291.549,372.586z"/>
			<path style="fill:#407BFF;" d="M275.061,372.586h-45.109c-0.91,0-1.648,0.738-1.648,1.648v10.917c0,0.91,0.738,1.648,1.648,1.648
				h45.109c0.91,0,1.648-0.738,1.648-1.648v-10.917C276.708,373.323,275.971,372.586,275.061,372.586z"/>
			<path style="opacity:0.3;fill:#F5F5F5;" d="M271.932,379.692c0,1.649-1.337,2.987-2.987,2.987s-2.987-1.337-2.987-2.987
				c0-1.65,1.337-2.987,2.987-2.987S271.932,378.042,271.932,379.692z"/>
			<path style="fill:#407BFF;" d="M270.465,379.692c0,0.839-0.68,1.519-1.519,1.519c-0.839,0-1.519-0.68-1.519-1.519
				c0-0.839,0.68-1.519,1.519-1.519C269.785,378.173,270.465,378.853,270.465,379.692z"/>
			<rect x="259.149" y="377.992" style="opacity:0.3;fill:#F5F5F5;" width="3.399" height="3.399"/>
		</g>
		<g>
			<path style="fill:#407BFF;" d="M291.549,357.746H246.44c-0.91,0-1.648,0.738-1.648,1.648v10.917c0,0.91,0.738,1.648,1.648,1.648
				h45.109c0.91,0,1.648-0.738,1.648-1.648v-10.917C293.197,358.484,292.459,357.746,291.549,357.746z"/>
			<path style="opacity:0.2;enable-background:new    ;" d="M291.549,357.746H246.44c-0.91,0-1.648,0.738-1.648,1.648v10.917
				c0,0.91,0.738,1.648,1.648,1.648h45.109c0.91,0,1.648-0.738,1.648-1.648v-10.917
				C293.197,358.484,292.459,357.746,291.549,357.746z"/>
			<path style="fill:#407BFF;" d="M275.061,357.746h-45.109c-0.91,0-1.648,0.738-1.648,1.648v10.917c0,0.91,0.738,1.648,1.648,1.648
				h45.109c0.91,0,1.648-0.738,1.648-1.648v-10.917C276.708,358.484,275.971,357.746,275.061,357.746z"/>
			<path style="opacity:0.3;fill:#F5F5F5;" d="M271.932,364.852c0,1.65-1.337,2.987-2.987,2.987s-2.987-1.337-2.987-2.987
				s1.337-2.987,2.987-2.987S271.932,363.203,271.932,364.852z"/>
			<path style="fill:#407BFF;" d="M270.465,364.852c0,0.839-0.68,1.519-1.519,1.519c-0.839,0-1.519-0.68-1.519-1.519
				c0-0.839,0.68-1.519,1.519-1.519C269.785,363.333,270.465,364.013,270.465,364.852z"/>
			<rect x="259.149" y="363.153" style="opacity:0.3;fill:#F5F5F5;" width="3.399" height="3.399"/>
		</g>
	</g>
	<g>
		<rect x="284.535" y="389.323" style="fill:#263238;" width="60.763" height="19.774"/>
		<g>
			<path style="fill:#407BFF;" d="M345.961,402.265h-45.108c-0.91,0-1.648,0.738-1.648,1.648v10.917c0,0.91,0.738,1.648,1.648,1.648
				h45.108c0.91,0,1.648-0.738,1.648-1.648v-10.917C347.608,403.002,346.871,402.265,345.961,402.265z"/>
			<path style="opacity:0.2;enable-background:new    ;" d="M345.961,402.265h-45.108c-0.91,0-1.648,0.738-1.648,1.648v10.917
				c0,0.91,0.738,1.648,1.648,1.648h45.108c0.91,0,1.648-0.738,1.648-1.648v-10.917
				C347.608,403.002,346.871,402.265,345.961,402.265z"/>
			<path style="fill:#407BFF;" d="M329.472,402.265h-45.109c-0.91,0-1.648,0.738-1.648,1.648v10.917c0,0.91,0.738,1.648,1.648,1.648
				h45.109c0.91,0,1.648-0.738,1.648-1.648v-10.917C331.12,403.002,330.382,402.265,329.472,402.265z"/>
			<path style="opacity:0.3;fill:#F5F5F5;" d="M326.344,409.371c0,1.65-1.337,2.987-2.987,2.987c-1.65,0-2.987-1.337-2.987-2.987
				c0-1.649,1.337-2.987,2.987-2.987C325.007,406.384,326.344,407.721,326.344,409.371z"/>
			<path style="fill:#407BFF;" d="M324.876,409.371c0,0.839-0.68,1.519-1.519,1.519c-0.839,0-1.519-0.68-1.519-1.519
				c0-0.839,0.68-1.519,1.519-1.519C324.196,407.852,324.876,408.532,324.876,409.371z"/>
			<rect x="313.561" y="407.672" style="opacity:0.3;fill:#F5F5F5;" width="3.399" height="3.399"/>
		</g>
		<g>
			<path style="fill:#407BFF;" d="M345.961,387.425h-45.108c-0.91,0-1.648,0.738-1.648,1.648v10.917c0,0.91,0.738,1.648,1.648,1.648
				h45.108c0.91,0,1.648-0.738,1.648-1.648v-10.917C347.608,388.163,346.871,387.425,345.961,387.425z"/>
			<path style="opacity:0.2;enable-background:new    ;" d="M345.961,387.425h-45.108c-0.91,0-1.648,0.738-1.648,1.648v10.917
				c0,0.91,0.738,1.648,1.648,1.648h45.108c0.91,0,1.648-0.738,1.648-1.648v-10.917
				C347.608,388.163,346.871,387.425,345.961,387.425z"/>
			<path style="fill:#407BFF;" d="M329.472,387.425h-45.109c-0.91,0-1.648,0.738-1.648,1.648v10.917c0,0.91,0.738,1.648,1.648,1.648
				h45.109c0.91,0,1.648-0.738,1.648-1.648v-10.917C331.12,388.163,330.382,387.425,329.472,387.425z"/>
			<path style="opacity:0.3;fill:#F5F5F5;" d="M326.344,394.531c0,1.649-1.337,2.987-2.987,2.987c-1.65,0-2.987-1.337-2.987-2.987
				c0-1.65,1.337-2.987,2.987-2.987C325.007,391.545,326.344,392.882,326.344,394.531z"/>
			<path style="fill:#407BFF;" d="M324.876,394.531c0,0.839-0.68,1.519-1.519,1.519c-0.839,0-1.519-0.68-1.519-1.519
				c0-0.839,0.68-1.519,1.519-1.519C324.196,393.012,324.876,393.692,324.876,394.531z"/>
			<rect x="313.561" y="392.832" style="opacity:0.3;fill:#F5F5F5;" width="3.399" height="3.399"/>
		</g>
	</g>
</g>
<g id="Character">
	<g>
		<polygon style="fill:#E4897B;" points="169.344,399.093 163.036,400.207 160.45,391.606 158.089,383.713 165.362,381.172 
			167.474,390.659 		"/>
		<polygon style="opacity:0.2;enable-background:new    ;" points="167.508,390.854 160.48,391.779 158.105,383.799 165.37,381.216 
					"/>
		<polygon style="fill:#E4897B;" points="127.234,402 120.829,402 119.777,392.979 118.825,384.744 126.429,383.482 
			126.859,393.281 		"/>
		<polygon style="opacity:0.2;enable-background:new    ;" points="126.859,393.364 119.777,393.053 118.825,384.781 126.429,383.5 
					"/>
		<path style="fill:#263238;" d="M135.915,414.688c-1.017-0.823-2.176-1.454-3.42-1.86l0,0c0,0-3.72-3.69-5.51-14.8l-4.87-1.27
			c-1.693-0.411-3.463,0.281-4.43,1.73c-0.135,0.196-0.24,0.412-0.31,0.64c-0.251,1.191-0.424,2.397-0.52,3.61
			c-0.49,3.76-0.07,12.2-0.07,12.2h0.88l0.35-7.66c0.13-2.6,2.12,0.45,2.69,3.25c0.57,2.8,1.78,5.78,7.48,5.92
			C134.835,416.578,137.595,416.318,135.915,414.688z"/>
		<path style="fill:#263238;" d="M178.415,413.938c-1.017-0.823-2.176-1.454-3.42-1.86l0,0c0,0-3.72-3.69-5.51-14.8l-4.87-1.27
			c-1.693-0.411-3.463,0.281-4.43,1.73c-0.135,0.196-0.24,0.412-0.31,0.64c-0.251,1.191-0.424,2.397-0.52,3.61
			c-0.49,3.76-0.07,12.2-0.07,12.2h0.88l0.35-7.66c0.13-2.6,2.12,0.45,2.69,3.25c0.57,2.8,1.78,5.78,7.48,5.92
			C177.335,415.828,180.095,415.568,178.415,413.938z"/>
		<g>
			<g>
				<path style="fill:#407BFF;" d="M168.102,385.849l-10.369,1.828c-10.464-26.07-17.907-47.831-23.163-65.889
					c-2.831-9.744-5.193-18.409-6.888-26.098L128,324.07V388h-10.219c-25.615-122-7.462-149.804-7.462-149.804l30.643-5.102
					c1.165,4.574,2.046,12.056,2.566,17.217l1.382,10.166l11.979,61.872L168.102,385.849z"/>
			</g>
			<g style="opacity:0.2;enable-background:new    ;">
				<path d="M168.102,385.849l-10.369,1.828c-10.464-26.07-17.907-47.831-23.163-65.889c-2.831-9.744-5.193-18.409-6.888-26.098
					L128,324.07V388h-10.219c-25.615-122-7.462-149.804-7.462-149.804l30.643-5.102c1.165,4.574,2.046,12.056,2.566,17.217
					l1.382,10.166l11.979,61.872L168.102,385.849z"/>
			</g>
		</g>
		<path style="fill:#EEC1BB;" d="M177.246,202.973l10.345-10.221c0,0,0.358-2.738,1.358-3.501c1.001-0.763,8.098-3.337,8.965-2.765
			c0.867,0.572,2.075,6.308,0.861,7.356c-1.214,1.049-7.668,2.393-8.329,2.28l-11.191,13.285L177.246,202.973z"/>
		<g>
			<path style="fill:#263238;" d="M140.205,184.347c4.462,2.365,20.295,24.501,22.628,25.6c2.333,1.099,20.162-13.36,20.162-13.36
				l3.005,5.126c0,0-14.628,20.667-22.898,19.667c-8.269-1-24.102-18.5-24.102-18.5L140.205,184.347z"/>
			<path style="opacity:0.1;fill:#FFFFFF;enable-background:new    ;" d="M140.205,184.347c4.462,2.365,20.295,24.501,22.628,25.6
				c2.333,1.099,20.162-13.36,20.162-13.36l3.005,5.126c0,0-14.628,20.667-22.898,19.667c-8.269-1-24.102-18.5-24.102-18.5
				L140.205,184.347z"/>
		</g>
		<polygon style="fill:#407BFF;" points="182.015,197.129 183.25,195.962 186.5,201.462 185.333,203.712 		"/>
		<path style="opacity:0.2;enable-background:new    ;" d="M145.36,209.342c-3.7-3.53-6.36-6.46-6.36-6.46l0.28-4.4l1.39-4.27
			C140.67,194.212,146.91,199.962,145.36,209.342z"/>
		<path style="opacity:0.2;enable-background:new    ;" d="M134.57,321.788c-2.831-9.744-5.038-18.409-6.733-26.098
			c0,0,0.17-14.943,1.979-27.215C129.817,268.474,134.305,303.578,134.57,321.788z"/>
		<g>
			<path style="fill:#263238;" d="M141.701,231.202c1.25-22.017,0.691-34.119,0.123-40.17c-0.625-6.449-1.619-6.686-1.619-6.686
				s-6.989-0.682-13.068-0.634c-4.706,0.161-9.403,0.653-14.034,1.477c-4.394,0.729-8.721,1.78-12.973,3.134
				c0.71,2.026,1.354,3.949,1.951,5.757c0.795,2.386,1.506,4.602,2.149,6.667c1.203,3.864,2.14,7.206,2.888,10.199
				c2.339,9.261,2.831,15.189,3.324,22.954c0,0-7.692,20.099-9.192,34.849l25.5,2.75l3.5-14.75l3.5,15.25l14.25-5L141.701,231.202z"
				/>
			<path style="opacity:0.1;fill:#FFFFFF;enable-background:new    ;" d="M141.701,231.202c1.25-22.017,0.691-34.119,0.123-40.17
				c-0.625-6.449-1.619-6.686-1.619-6.686s-6.989-0.682-13.068-0.634c-4.706,0.161-9.403,0.653-14.034,1.477
				c-4.394,0.729-8.721,1.78-12.973,3.134c0.71,2.026,1.354,3.949,1.951,5.757c0.795,2.386,1.506,4.602,2.149,6.667
				c1.203,3.864,2.14,7.206,2.888,10.199c2.339,9.261,2.831,15.189,3.324,22.954c0,0-7.692,20.099-9.192,34.849l25.5,2.75l3.5-14.75
				l3.5,15.25l14.25-5L141.701,231.202z"/>
		</g>
		<path style="opacity:0.2;enable-background:new    ;" d="M108.35,216.332c-0.34-1.68-0.74-3.47-1.23-5.39
			c-0.31-1.22-0.65-2.5-1.03-3.86c0.97-3.41,1.972-0.745,1.972-0.745S109.063,210.462,108.35,216.332z"/>
		<polygon style="fill:#407BFF;" points="116.833,191.333 129.5,214 132.5,189.667 126.75,196.875 		"/>
		<g>
			<path style="fill:#407BFF;" d="M116.5,183.25c-5.662,1.329-7.375,5.875-6.75,10l4.125-1.375c0,0,7.625,2.625,13.25,7.25
				c0,0,3.125-5.75,6.125-7.625l4.25,0.5C137.5,192,130.875,179.875,116.5,183.25z"/>
			<path style="opacity:0.1;fill:#FFFFFF;" d="M116.5,183.25c-5.662,1.329-7.375,5.875-6.75,10l4.125-1.375
				c0,0,7.625,2.625,13.25,7.25c0,0,3.125-5.75,6.125-7.625l4.25,0.5C137.5,192,130.875,179.875,116.5,183.25z"/>
		</g>
		<path style="fill:#EEC1BB;" d="M126.782,185.053c-0.276-0.151-0.604-0.284-0.951-0.408c-0.721-0.569-1.596-1.941-1.555-5.275
			c0.015-1.086,0.118-2.371,0.362-3.904l-9.272-1.731c0,0,3.161,6.239,0.523,10.873c-0.907,0.404-1.448,0.974-1.35,1.729
			c0.694,5.359,12.211,10.537,12.211,10.537S132.375,188.125,126.782,185.053z"/>
		<path style="opacity:0.2;enable-background:new    ;" d="M124.638,175.467c-0.244,1.532-0.347,2.818-0.362,3.904
			c-6.263,0-8.91-5.635-8.91-5.635L124.638,175.467z"/>
		<g>
			<path style="fill:#263238;" d="M120.5,144.875c0,0,10.875-1.375,12.875,7.375s-4.75,13.625-4.75,13.625L120.5,144.875z"/>
			<path style="fill:#EEC1BB;" d="M119.513,149.541c8.06-0.442,10.891,3.731,11.936,12.005c1.307,10.34-0.591,17.84-10.79,16.175
				C106.807,175.46,106.127,150.274,119.513,149.541z"/>
			<path style="fill:#D4827D;" d="M126.214,161.381c0,0,1.232,2.044,2.528,3.214c0,0-0.63,1.134-2.075,1.028L126.214,161.381z"/>
			<g>
				<path style="fill:#263238;" d="M121.244,160.992c0.052,0.661-0.264,1.225-0.704,1.26c-0.441,0.035-0.84-0.473-0.892-1.135
					c-0.052-0.661,0.263-1.225,0.704-1.26C120.793,159.823,121.192,160.331,121.244,160.992z"/>
				<path style="fill:#263238;" d="M120.171,159.904l1.394-0.677C121.565,159.227,120.944,160.494,120.171,159.904z"/>
			</g>
			<g>
				<path style="fill:#263238;" d="M129.454,160.211c0.052,0.661-0.264,1.225-0.704,1.26c-0.441,0.034-0.84-0.474-0.892-1.135
					c-0.052-0.661,0.264-1.225,0.705-1.26C129.003,159.042,129.402,159.55,129.454,160.211z"/>
				<path style="fill:#263238;" d="M128.38,159.123l1.394-0.676C129.774,158.447,129.153,159.713,128.38,159.123z"/>
			</g>
			
				<path style="fill:none;stroke:#263238;stroke-width:0.6862;stroke-linecap:round;stroke-linejoin:round;stroke-miterlimit:10;" d="
				M120.858,155.431c0,0-2.281-0.17-3.429,1.41"/>
			
				<path style="fill:none;stroke:#263238;stroke-width:0.6862;stroke-linecap:round;stroke-linejoin:round;stroke-miterlimit:10;" d="
				M126.698,154.77c0,0,1.395-0.605,3.248,0.486"/>
			<path style="fill:#263238;" d="M111.448,163.608c0,0,3.406-6.829,2.555-11.91c0,0,15.615-7.4,17.291,8.769
				c0,0,0.772-14.481-13.101-14.043c-13.851,0.438-12.704,20.705-5.217,26.353C112.976,172.777,109.344,167.878,111.448,163.608z"/>
			<path style="fill:#263238;" d="M121.875,144.25c0,0,6.625-1.625,8.5,0.125s-11.5,14.125-18.5,15.375c0,0-2.375,7.75-0.5,11.375
				c0,0-7.875-2.75-8.25-14.75S115.375,139.875,121.875,144.25z"/>
			<path style="fill:#EEC1BB;" d="M112.858,165.238c-0.125-1.295-1.584-3.418-3.983-3.022c-2.483,0.409-3.392,5.602,2.888,6.495
				C112.663,168.838,113.118,167.939,112.858,165.238z"/>
			<path style="fill:#263238;" d="M109.375,149c0,0-2.75-7-10.125-6.5s-8.5,12-4.625,20.5s1.25,11.25,1.25,11.25
				s4.125-0.5,4.125-8.125c0,0,0.375,2.5,0.25,4.875c0,0,2.75-3.875,0.125-11.25s5.75-4,5.75-4L109.375,149z"/>
			
				<path style="fill:none;stroke:#263238;stroke-width:0.6862;stroke-linecap:round;stroke-linejoin:round;stroke-miterlimit:10;" d="
				M129.75,145c0,0-3.5,11.25-12.875,14.625"/>
			
				<path style="fill:none;stroke:#263238;stroke-width:0.6862;stroke-linecap:round;stroke-linejoin:round;stroke-miterlimit:10;" d="
				M120.375,168.5c0,0,1.875,2,4.625,1.875"/>
			<path style="fill:none;stroke:#263238;stroke-width:0.5;stroke-linecap:round;stroke-linejoin:round;stroke-miterlimit:10;" d="
				M125.375,162.125c0,1.07-0.798,1.938-1.781,1.938c-0.984,0-1.781-0.867-1.781-1.938s0.798-1.938,1.781-1.938
				C124.577,160.188,125.375,161.055,125.375,162.125z"/>
			<path style="fill:none;stroke:#263238;stroke-width:0.5;stroke-linecap:round;stroke-linejoin:round;stroke-miterlimit:10;" d="
				M131.688,161.813c0,1.07-0.798,1.938-1.781,1.938c-0.984,0-1.781-0.867-1.781-1.938s0.798-1.938,1.781-1.938
				C130.89,159.875,131.688,160.742,131.688,161.813z"/>
			<path style="fill:none;stroke:#263238;stroke-width:0.5;stroke-linecap:round;stroke-linejoin:round;stroke-miterlimit:10;" d="
				M125.375,162.125c0,0,0.938-2,2.75-0.313"/>
			<path style="fill:none;stroke:#263238;stroke-width:0.5;stroke-linecap:round;stroke-linejoin:round;stroke-miterlimit:10;" d="
				M121.813,162.125c0,0-10-0.313-11.188-0.25"/>
		</g>
		<g>
			<path style="fill:#407BFF;" d="M111.733,208.827l-0.462,25.533c-0.011,0.611,0.507,1.098,1.116,1.05l16.816-1.336
				c0.525-0.042,0.935-0.471,0.952-0.998l0.809-25.311c0.02-0.61-0.491-1.105-1.101-1.065l-17.163,1.114
				C112.163,207.848,111.743,208.289,111.733,208.827z"/>
			<path style="opacity:0.6;fill:#FFFFFF;" d="M111.733,208.827l-0.462,25.533c-0.011,0.611,0.507,1.098,1.116,1.05l16.816-1.336
				c0.525-0.042,0.935-0.471,0.952-0.998l0.809-25.311c0.02-0.61-0.491-1.105-1.101-1.065l-17.163,1.114
				C112.163,207.848,111.743,208.289,111.733,208.827z"/>
			<g>
				<path style="fill:#407BFF;" d="M112.233,209.41l-0.462,25.533c-0.011,0.611,0.507,1.098,1.116,1.05l16.816-1.336
					c0.525-0.042,0.935-0.471,0.952-0.998l0.809-25.311c0.02-0.61-0.491-1.105-1.101-1.065l-17.163,1.115
					C112.663,208.432,112.243,208.872,112.233,209.41z"/>
				<path style="opacity:0.7;fill:#FFFFFF;" d="M112.233,209.41l-0.462,25.533c-0.011,0.611,0.507,1.098,1.116,1.05l16.816-1.336
					c0.525-0.042,0.935-0.471,0.952-0.998l0.809-25.311c0.02-0.61-0.491-1.105-1.101-1.065l-17.163,1.115
					C112.663,208.432,112.243,208.872,112.233,209.41z"/>
			</g>
			<path style="opacity:0.2;enable-background:new    ;" d="M123.83,221.584c0,1.376-1.12,2.496-2.496,2.496
				c-1.384,0-2.504-1.12-2.504-2.496c0-1.384,1.12-2.504,2.504-2.504c0.032,0,0.064,0,0.096,0.008
				c0.192,1.16,1.168,2.048,2.368,2.088C123.822,221.312,123.83,221.448,123.83,221.584z"/>
		</g>
		<path style="fill:#EEC1BB;" d="M97.128,229.592l12.303-7.754c0,0,0.939-2.597,2.08-3.126c1.141-0.529,8.627-1.515,9.351-0.77
			c0.724,0.745,0.668,6.606-0.743,7.369c-1.411,0.763-8.003,0.686-8.624,0.433l-13.789,10.564L97.128,229.592z"/>
		<g>
			<path style="fill:#263238;" d="M100.13,188.324c0,0,8.037,11.676,6.87,21.676l-10.667,17.667L103.5,224l3.25,6.125
				c0,0-8.25,12.708-18.75,9.708S100.13,188.324,100.13,188.324z"/>
			<path style="opacity:0.1;fill:#FFFFFF;enable-background:new    ;" d="M100.13,188.324c0,0,8.037,11.676,6.87,21.676
				l-10.667,17.667L103.5,224l3.25,6.125c0,0-8.25,12.708-18.75,9.708S100.13,188.324,100.13,188.324z"/>
		</g>
		<polygon style="fill:#407BFF;" points="102.75,223.667 106.833,231.25 107.75,229.083 104.5,222.917 		"/>
	</g>
</g>
<g id="Button">
	<g>
		<path style="fill:#407BFF;" d="M196.017,192.64c-2.545,0-4.617-2.071-4.617-4.616c0-2.545,2.071-4.616,4.617-4.616
			c2.545,0,4.616,2.071,4.616,4.616C200.633,190.569,198.562,192.64,196.017,192.64z"/>
		<g>
			<g>
				<path style="fill:#407BFF;" d="M198.11,213h-0.093c-4.323,0-8.579-1.315-12.308-3.474l2.506-4.414
					c2.968,1.719,6.358,2.758,9.802,2.758L198.11,213z M210.413,209.301l-2.523-4.316c2.97-1.736,5.446-4.23,7.16-7.212l4.335,2.492
					C217.236,204.001,214.134,207.126,210.413,209.301z M176.701,200.352c-2.163-3.726-3.308-7.981-3.313-12.303l5-0.006
					c0.004,3.444,0.915,6.833,2.637,9.799L176.701,200.352z M217.646,187.961c-0.01-3.443-0.929-6.83-2.658-9.793l4.319-2.519
					c2.171,3.723,3.325,7.975,3.338,12.296L217.646,187.961z M181.005,178.239l-4.329-2.501c2.156-3.732,5.265-6.851,8.99-9.018
					l2.515,4.322C185.207,172.772,182.726,175.261,181.005,178.239z M207.784,171.001c-2.96-1.706-6.337-2.804-9.767-2.804
					L197.971,163h0.046c4.305,0,8.545,1.329,12.263,3.472L207.784,171.001z"/>
			</g>
			<g style="opacity:0.6;enable-background:new    ;">
				<path style="fill:#FFFFFF;" d="M198.11,213h-0.093c-4.323,0-8.579-1.315-12.308-3.474l2.506-4.414
					c2.968,1.719,6.358,2.758,9.802,2.758L198.11,213z M210.413,209.301l-2.523-4.316c2.97-1.736,5.446-4.23,7.16-7.212l4.335,2.492
					C217.236,204.001,214.134,207.126,210.413,209.301z M176.701,200.352c-2.163-3.726-3.308-7.981-3.313-12.303l5-0.006
					c0.004,3.444,0.915,6.833,2.637,9.799L176.701,200.352z M217.646,187.961c-0.01-3.443-0.929-6.83-2.658-9.793l4.319-2.519
					c2.171,3.723,3.325,7.975,3.338,12.296L217.646,187.961z M181.005,178.239l-4.329-2.501c2.156-3.732,5.265-6.851,8.99-9.018
					l2.515,4.322C185.207,172.772,182.726,175.261,181.005,178.239z M207.784,171.001c-2.96-1.706-6.337-2.804-9.767-2.804
					L197.971,163h0.046c4.305,0,8.545,1.329,12.263,3.472L207.784,171.001z"/>
			</g>
		</g>
	</g>
</g>
<g id="Data_Points">
	<g>
		<g>
			<path style="fill:#407BFF;" d="M203.017,194.179c-3.394,0-6.155-2.761-6.155-6.155c0-3.394,2.762-6.155,6.155-6.155
				c3.394,0,6.155,2.762,6.155,6.155C209.172,191.417,206.411,194.179,203.017,194.179z"/>
			<path style="opacity:0.5;fill:#FFFFFF;" d="M203.017,194.179c-3.394,0-6.155-2.761-6.155-6.155c0-3.394,2.762-6.155,6.155-6.155
				c3.394,0,6.155,2.762,6.155,6.155C209.172,191.417,206.411,194.179,203.017,194.179z"/>
		</g>
		<g>
			<g>
				
					<ellipse transform="matrix(0.2298 -0.9732 0.9732 0.2298 -25.0796 344.3574)" style="fill:none;stroke:#407BFF;stroke-width:3;stroke-miterlimit:10;" cx="205.017" cy="188.023" rx="10.129" ry="10.129"/>
			</g>
			<g>
				<rect x="214" y="187" style="fill:#407BFF;" width="168" height="2"/>
			</g>
			<g>
				<path style="fill:#407BFF;" d="M206,179h-2v-12c0-0.266,0.106-0.52,0.294-0.708l61.166-61c0.188-0.187,0.441-0.292,0.706-0.292
					H322v2h-55.42L206,167.415V179z"/>
			</g>
			<g>
				<path style="fill:#407BFF;" d="M351,280h-75c-0.265,0-0.52-0.105-0.707-0.293l-71-71C204.105,208.52,204,208.265,204,208v-10h2
					v9.586L276.414,278H351V280z"/>
			</g>
			<g>
				<path style="fill:#407BFF;" d="M301,216h-40.167c-0.264,0-0.518-0.105-0.705-0.29l-27-26.833l1.41-1.419L261.246,214H301V216z"
					/>
			</g>
			<g>
				<path style="fill:#407BFF;" d="M273.21,188.786l-1.419-1.41l26.914-27.081c0.188-0.189,0.443-0.295,0.71-0.295H340v2h-40.17
					L273.21,188.786z"/>
			</g>
			<g>
				<path style="fill:#407BFF;" d="M426,138H267.228c-0.267,0-0.523-0.107-0.711-0.296l-15.936-16.103l1.422-1.407L267.646,136H426
					V138z"/>
			</g>
			<g>
				<path style="fill:#407BFF;" d="M284.374,106.707l-1.414-1.414l26-26c0.188-0.188,0.442-0.293,0.707-0.293H393v2h-82.919
					L284.374,106.707z"/>
			</g>
			<g>
				<path style="fill:#407BFF;" d="M300.626,329.04l-40.333-40.333C260.105,288.52,260,288.266,260,288v-24h2v23.586l40.04,40.04
					L300.626,329.04z"/>
			</g>
			<g>
				<path style="fill:#407BFF;" d="M291.543,279.391l-1.419-1.41l26.519-26.686c0.188-0.189,0.443-0.295,0.71-0.295H418v2H317.768
					L291.543,279.391z"/>
			</g>
			<g>
				<path style="fill:#407BFF;" d="M385,308h-44.833c-0.265,0-0.52-0.105-0.707-0.293l-28.167-28.167l1.414-1.414L340.581,306H385
					V308z"/>
			</g>
			<g>
				<circle style="fill:#407BFF;" cx="393" cy="80" r="4.583"/>
			</g>
			<g>
				<path style="fill:#407BFF;" d="M331,116.584c-5.836,0-10.583-4.748-10.583-10.584S325.164,95.416,331,95.416
					s10.583,4.748,10.583,10.584S336.836,116.584,331,116.584z M331,97.416c-4.733,0-8.583,3.851-8.583,8.584
					s3.851,8.584,8.583,8.584s8.583-3.851,8.583-8.584S335.733,97.416,331,97.416z"/>
			</g>
			<g>
				<circle style="fill:#407BFF;" cx="331" cy="106" r="4.583"/>
			</g>
			<g>
				<path style="fill:#407BFF;" d="M430.583,137.165c0,2.531-2.052,4.583-4.583,4.583s-4.583-2.052-4.583-4.583
					c0-2.531,2.052-4.583,4.583-4.583S430.583,134.634,430.583,137.165z"/>
			</g>
			<g>
				<circle style="fill:#407BFF;" cx="340" cy="161" r="4.583"/>
			</g>
			<g>
				<path style="fill:#407BFF;" d="M391,198.583c-5.836,0-10.583-4.748-10.583-10.583s4.748-10.583,10.583-10.583
					s10.583,4.748,10.583,10.583S396.836,198.583,391,198.583z M391,179.417c-4.733,0-8.583,3.851-8.583,8.583
					s3.851,8.583,8.583,8.583s8.583-3.851,8.583-8.583S395.733,179.417,391,179.417z"/>
			</g>
			<g>
				<circle style="fill:#407BFF;" cx="391" cy="188" r="4.583"/>
			</g>
			<g>
				<circle style="fill:#407BFF;" cx="301" cy="215" r="4.583"/>
			</g>
			<g>
				<circle style="fill:#407BFF;" cx="418" cy="252" r="4.583"/>
			</g>
			<g>
				<path style="fill:#407BFF;" d="M360,289.417c-5.836,0-10.583-4.748-10.583-10.584S354.164,268.25,360,268.25
					s10.583,4.747,10.583,10.583S365.836,289.417,360,289.417z M360,270.25c-4.733,0-8.583,3.851-8.583,8.583
					c0,4.733,3.851,8.584,8.583,8.584s8.583-3.851,8.583-8.584C368.583,274.101,364.733,270.25,360,270.25z"/>
			</g>
			<g>
				<path style="fill:#407BFF;" d="M364.583,278.833c0,2.531-2.052,4.583-4.583,4.583s-4.583-2.052-4.583-4.583
					c0-2.531,2.052-4.583,4.583-4.583S364.583,276.302,364.583,278.833z"/>
			</g>
			<g>
				<circle style="fill:#407BFF;" cx="385" cy="307" r="4.583"/>
			</g>
			<g>
				<path style="fill:#407BFF;" d="M305.917,328.333c0,2.531-2.052,4.583-4.583,4.583c-2.531,0-4.583-2.052-4.583-4.583
					c0-2.531,2.052-4.583,4.583-4.583C303.865,323.75,305.917,325.802,305.917,328.333z"/>
			</g>
		</g>
		<g>
			<g>
				<path style="fill:#407BFF;" d="M421.768,93.503h-16.703c-0.833,0-1.508-0.675-1.508-1.508V69.26
					c0-0.833,0.675-1.508,1.508-1.508h16.703c0.833,0,1.508,0.675,1.508,1.508v22.735C423.276,92.828,422.601,93.503,421.768,93.503
					z"/>
				<path style="opacity:0.6;fill:#FFFFFF;enable-background:new    ;" d="M421.768,93.503h-16.703
					c-0.833,0-1.508-0.675-1.508-1.508V69.26c0-0.833,0.675-1.508,1.508-1.508h16.703c0.833,0,1.508,0.675,1.508,1.508v22.735
					C423.276,92.828,422.601,93.503,421.768,93.503z"/>
			</g>
			<g>
				<rect x="406.501" y="71.406" style="fill:#407BFF;" width="13.832" height="1.392"/>
				<rect x="406.501" y="73.842" style="fill:#407BFF;" width="13.832" height="1.392"/>
				<rect x="406.501" y="76.278" style="fill:#407BFF;" width="13.832" height="1.392"/>
				<rect x="406.501" y="78.714" style="fill:#407BFF;" width="13.832" height="1.392"/>
				<rect x="406.501" y="81.15" style="fill:#407BFF;" width="13.832" height="1.392"/>
				<rect x="406.501" y="83.585" style="fill:#407BFF;" width="13.832" height="1.392"/>
				<rect x="406.501" y="86.021" style="fill:#407BFF;" width="13.832" height="1.392"/>
				<rect x="406.501" y="88.457" style="fill:#407BFF;" width="8.957" height="1.392"/>
			</g>
		</g>
		<g>
			<g>
				<path style="fill:#407BFF;" d="M328.85,230.038h-16.703c-0.833,0-1.508-0.675-1.508-1.508v-22.734
					c0-0.833,0.675-1.508,1.508-1.508h16.703c0.833,0,1.508,0.675,1.508,1.508v22.734
					C330.358,229.363,329.683,230.038,328.85,230.038z"/>
				<path style="opacity:0.6;fill:#FFFFFF;enable-background:new    ;" d="M328.85,230.038h-16.703
					c-0.833,0-1.508-0.675-1.508-1.508v-22.734c0-0.833,0.675-1.508,1.508-1.508h16.703c0.833,0,1.508,0.675,1.508,1.508v22.734
					C330.358,229.363,329.683,230.038,328.85,230.038z"/>
			</g>
			<g>
				<rect x="313.583" y="207.941" style="fill:#407BFF;" width="13.832" height="1.392"/>
				<rect x="313.583" y="210.377" style="fill:#407BFF;" width="13.832" height="1.392"/>
				<rect x="313.583" y="212.813" style="fill:#407BFF;" width="13.832" height="1.392"/>
				<rect x="313.583" y="215.249" style="fill:#407BFF;" width="13.832" height="1.392"/>
				<rect x="313.583" y="217.685" style="fill:#407BFF;" width="13.832" height="1.392"/>
				<rect x="313.583" y="220.121" style="fill:#407BFF;" width="13.832" height="1.392"/>
				<rect x="313.583" y="222.557" style="fill:#407BFF;" width="13.832" height="1.392"/>
				<rect x="313.583" y="224.992" style="fill:#407BFF;" width="8.957" height="1.392"/>
			</g>
		</g>
		<g>
			<g>
				<path style="fill:#407BFF;" d="M444.211,257.754h-16.703c-0.833,0-1.508-0.675-1.508-1.508v-22.735
					c0-0.833,0.675-1.508,1.508-1.508h16.703c0.833,0,1.508,0.675,1.508,1.508v22.735
					C445.719,257.079,445.044,257.754,444.211,257.754z"/>
				<path style="opacity:0.6;fill:#FFFFFF;enable-background:new    ;" d="M444.211,257.754h-16.703
					c-0.833,0-1.508-0.675-1.508-1.508v-22.735c0-0.833,0.675-1.508,1.508-1.508h16.703c0.833,0,1.508,0.675,1.508,1.508v22.735
					C445.719,257.079,445.044,257.754,444.211,257.754z"/>
			</g>
			<g>
				<rect x="428.943" y="235.658" style="fill:#407BFF;" width="13.832" height="1.392"/>
				<rect x="428.943" y="238.094" style="fill:#407BFF;" width="13.832" height="1.392"/>
				<rect x="428.943" y="240.529" style="fill:#407BFF;" width="13.832" height="1.392"/>
				<rect x="428.943" y="242.965" style="fill:#407BFF;" width="13.832" height="1.392"/>
				<rect x="428.943" y="245.401" style="fill:#407BFF;" width="13.832" height="1.392"/>
				<rect x="428.943" y="247.837" style="fill:#407BFF;" width="13.832" height="1.392"/>
				<rect x="428.943" y="250.273" style="fill:#407BFF;" width="13.832" height="1.392"/>
				<rect x="428.943" y="252.709" style="fill:#407BFF;" width="8.957" height="1.392"/>
			</g>
		</g>
		<g>
			<g>
				<path style="fill:#407BFF;" d="M452.027,142.875h-16.703c-0.833,0-1.508-0.675-1.508-1.508v-22.735
					c0-0.833,0.675-1.508,1.508-1.508h16.703c0.833,0,1.508,0.675,1.508,1.508v22.735C453.535,142.2,452.86,142.875,452.027,142.875
					z"/>
				<path style="opacity:0.6;fill:#FFFFFF;enable-background:new    ;" d="M452.027,142.875h-16.703
					c-0.833,0-1.508-0.675-1.508-1.508v-22.735c0-0.833,0.675-1.508,1.508-1.508h16.703c0.833,0,1.508,0.675,1.508,1.508v22.735
					C453.535,142.2,452.86,142.875,452.027,142.875z"/>
			</g>
			<g>
				<rect x="436.76" y="120.779" style="fill:#407BFF;" width="13.832" height="1.392"/>
				<rect x="436.76" y="123.214" style="fill:#407BFF;" width="13.832" height="1.392"/>
				<rect x="436.76" y="125.65" style="fill:#407BFF;" width="13.832" height="1.392"/>
				<rect x="436.76" y="128.086" style="fill:#407BFF;" width="13.832" height="1.392"/>
				<rect x="436.76" y="130.522" style="fill:#407BFF;" width="13.832" height="1.392"/>
				<rect x="436.76" y="132.958" style="fill:#407BFF;" width="13.832" height="1.392"/>
				<rect x="436.76" y="135.394" style="fill:#407BFF;" width="13.832" height="1.392"/>
				<rect x="436.76" y="137.829" style="fill:#407BFF;" width="8.957" height="1.392"/>
			</g>
		</g>
		<g>
			<g>
				<path style="fill:#407BFF;" d="M329.223,348.963H312.52c-0.833,0-1.508-0.675-1.508-1.508V324.72
					c0-0.833,0.675-1.508,1.508-1.508h16.703c0.833,0,1.508,0.675,1.508,1.508v22.734
					C330.73,348.288,330.055,348.963,329.223,348.963z"/>
				<path style="opacity:0.6;fill:#FFFFFF;enable-background:new    ;" d="M329.223,348.963H312.52
					c-0.833,0-1.508-0.675-1.508-1.508V324.72c0-0.833,0.675-1.508,1.508-1.508h16.703c0.833,0,1.508,0.675,1.508,1.508v22.734
					C330.73,348.288,330.055,348.963,329.223,348.963z"/>
			</g>
			<g>
				<rect x="313.955" y="326.866" style="fill:#407BFF;" width="13.832" height="1.392"/>
				<rect x="313.955" y="329.302" style="fill:#407BFF;" width="13.832" height="1.392"/>
				<rect x="313.955" y="331.738" style="fill:#407BFF;" width="13.832" height="1.392"/>
				<rect x="313.955" y="334.174" style="fill:#407BFF;" width="13.832" height="1.392"/>
				<rect x="313.955" y="336.61" style="fill:#407BFF;" width="13.832" height="1.392"/>
				<rect x="313.955" y="339.046" style="fill:#407BFF;" width="13.832" height="1.392"/>
				<rect x="313.955" y="341.481" style="fill:#407BFF;" width="13.832" height="1.392"/>
				<rect x="313.955" y="343.917" style="fill:#407BFF;" width="8.957" height="1.392"/>
			</g>
		</g>
		<g>
			<path style="fill:#407BFF;" d="M450.405,210.45h-42.924c-0.849,0-1.538-0.689-1.538-1.538v-42.924
				c0-0.849,0.689-1.538,1.538-1.538h42.924c0.849,0,1.538,0.688,1.538,1.538v42.924C451.943,209.762,451.255,210.45,450.405,210.45
				z"/>
			<circle style="opacity:0.5;fill:#FFFFFF;" cx="428.943" cy="187.45" r="15.5"/>
			<path style="opacity:0.7;fill:#FFFFFF;" d="M428.943,187.45h15.5c0,8.503-6.997,15.5-15.5,15.5c-8.503,0-15.5-6.997-15.5-15.5
				c0-8.503,6.997-15.5,15.5-15.5c2.719,0,5.391,0.715,7.746,2.074L428.943,187.45z"/>
			<circle style="fill:#407BFF;" cx="428.943" cy="187.45" r="12"/>
			<circle style="opacity:0.3;fill:#FFFFFF;" cx="428.943" cy="187.45" r="12"/>
			<text transform="matrix(1 0 0 1 423.7077 189.7935)" style="fill:#FFFFFF; font-family:'Bebas'; font-size:5.8881px;">80%</text>
		</g>
		<g>
			<path style="fill:#407BFF;" d="M407.679,296.5h-32.66c-0.646,0-1.17-0.524-1.17-1.17v-32.66c0-0.646,0.524-1.17,1.17-1.17h32.66
				c0.646,0,1.17,0.524,1.17,1.17v32.66C408.85,295.976,408.326,296.5,407.679,296.5z"/>
			<g>
				<g>
					<rect x="398" y="290.627" style="opacity:0.5;fill:#FFFFFF;" width="4.5" height="2.29"/>
					<rect x="398" y="267.78" style="fill:#FFFFFF;" width="4.5" height="2.29"/>
					<rect x="398" y="271.587" style="fill:#FFFFFF;" width="4.5" height="2.29"/>
					<rect x="398" y="275.395" style="opacity:0.75;fill:#FFFFFF;" width="4.5" height="2.29"/>
					<rect x="398" y="279.203" style="opacity:0.5;fill:#FFFFFF;" width="4.5" height="2.29"/>
					<rect x="398" y="283.011" style="opacity:0.5;fill:#FFFFFF;" width="4.5" height="2.29"/>
					<rect x="398" y="286.819" style="opacity:0.5;fill:#FFFFFF;" width="4.5" height="2.29"/>
				</g>
				<g>
					<rect x="391.875" y="290.627" style="opacity:0.5;fill:#FFFFFF;" width="4.5" height="2.29"/>
					<rect x="391.875" y="279.203" style="fill:#FFFFFF;" width="4.5" height="2.29"/>
					<rect x="391.875" y="283.011" style="opacity:0.75;fill:#FFFFFF;" width="4.5" height="2.29"/>
					<rect x="391.875" y="286.819" style="opacity:0.5;fill:#FFFFFF;" width="4.5" height="2.29"/>
				</g>
				<g>
					<rect x="385.75" y="290.627" style="opacity:0.5;fill:#FFFFFF;" width="4.5" height="2.29"/>
					<rect x="385.75" y="275.395" style="fill:#FFFFFF;" width="4.5" height="2.29"/>
					<rect x="385.75" y="279.203" style="opacity:0.75;fill:#FFFFFF;" width="4.5" height="2.29"/>
					<rect x="385.75" y="283.011" style="opacity:0.5;fill:#FFFFFF;" width="4.5" height="2.29"/>
					<rect x="385.75" y="286.819" style="opacity:0.5;fill:#FFFFFF;" width="4.5" height="2.29"/>
				</g>
				<g>
					<rect x="379.625" y="290.627" style="opacity:0.5;fill:#FFFFFF;" width="4.5" height="2.29"/>
					<rect x="379.625" y="283.011" style="fill:#FFFFFF;" width="4.5" height="2.29"/>
					<rect x="379.625" y="286.819" style="opacity:0.75;fill:#FFFFFF;" width="4.5" height="2.29"/>
				</g>
			</g>
		</g>
		<g>
			<path style="fill:#407BFF;" d="M380.913,128.083h-32.66c-0.646,0-1.17-0.524-1.17-1.17v-32.66c0-0.646,0.524-1.17,1.17-1.17
				h32.66c0.646,0,1.17,0.524,1.17,1.17v32.66C382.083,127.559,381.559,128.083,380.913,128.083z"/>
			<g>
				<g>
					<path style="opacity:0.9;fill:#FFFFFF;" d="M367.109,106.785v-2.19l-1.128-0.106c-0.152-0.734-0.443-1.417-0.841-2.023
						l0.724-0.875l-1.548-1.549l-0.875,0.724c-0.606-0.398-1.289-0.689-2.023-0.841l-0.106-1.128h-2.19l-0.106,1.128
						c-0.734,0.152-1.417,0.443-2.023,0.841l-0.875-0.724l-1.548,1.549l0.724,0.875c-0.398,0.606-0.689,1.289-0.841,2.023
						l-1.128,0.106v2.19l1.128,0.106c0.152,0.734,0.443,1.417,0.841,2.023l-0.724,0.875l1.548,1.548l0.875-0.724
						c0.606,0.398,1.289,0.689,2.023,0.841l0.106,1.128h2.19l0.106-1.128c0.734-0.152,1.416-0.443,2.023-0.841l0.875,0.724
						l1.548-1.548l-0.724-0.875c0.398-0.606,0.689-1.289,0.841-2.023L367.109,106.785z M360.218,108.654
						c-1.637,0-2.964-1.327-2.964-2.964c0-1.637,1.327-2.964,2.964-2.964c1.637,0,2.964,1.327,2.964,2.964
						C363.182,107.327,361.855,108.654,360.218,108.654z"/>
					<path style="opacity:0.6;fill:#FFFFFF;" d="M375.984,112.966v-1.716l-0.883-0.083c-0.119-0.575-0.347-1.11-0.659-1.585
						l0.568-0.685l-1.213-1.213l-0.686,0.568c-0.475-0.312-1.01-0.54-1.585-0.659l-0.083-0.883h-1.716l-0.083,0.883
						c-0.575,0.119-1.11,0.347-1.585,0.659l-0.685-0.568l-1.213,1.213l0.568,0.685c-0.312,0.475-0.54,1.01-0.659,1.585l-0.884,0.083
						v1.716l0.884,0.083c0.119,0.575,0.347,1.11,0.659,1.585l-0.568,0.686l1.213,1.213l0.685-0.567
						c0.475,0.312,1.01,0.54,1.585,0.659l0.083,0.883h1.716l0.083-0.883c0.575-0.119,1.11-0.347,1.585-0.659l0.685,0.567
						l1.213-1.213l-0.568-0.686c0.312-0.475,0.54-1.01,0.659-1.585L375.984,112.966z M370.584,114.431
						c-1.283,0-2.323-1.04-2.323-2.323c0-1.283,1.04-2.323,2.323-2.323s2.323,1.04,2.323,2.323
						C372.907,113.391,371.867,114.431,370.584,114.431z"/>
					<path style="opacity:0.4;fill:#FFFFFF;" d="M367.109,117.837v-1.441l-0.742-0.07c-0.1-0.483-0.292-0.932-0.553-1.331
						l0.477-0.576l-1.019-1.019l-0.576,0.477c-0.399-0.262-0.848-0.453-1.331-0.553l-0.07-0.742h-1.441l-0.07,0.742
						c-0.483,0.1-0.932,0.292-1.331,0.554l-0.576-0.477l-1.019,1.019l0.477,0.576c-0.262,0.399-0.453,0.848-0.553,1.331l-0.742,0.07
						l0,1.441l0.742,0.07c0.1,0.483,0.292,0.932,0.553,1.331l-0.477,0.576l1.019,1.019l0.576-0.477
						c0.399,0.262,0.848,0.453,1.331,0.554l0.07,0.742h1.441l0.07-0.742c0.483-0.1,0.932-0.292,1.331-0.554l0.576,0.477l1.019-1.019
						l-0.477-0.576c0.262-0.399,0.453-0.848,0.553-1.331L367.109,117.837z M362.573,119.068c-1.078,0-1.951-0.873-1.951-1.951
						c0-1.077,0.874-1.951,1.951-1.951c1.077,0,1.951,0.874,1.951,1.951C364.524,118.194,363.651,119.068,362.573,119.068z"/>
				</g>
			</g>
		</g>
		<g>
			<g>
				<rect x="347.938" y="150.75" style="fill:#407BFF;" width="30.75" height="20"/>
				<rect x="347.938" y="150.75" style="opacity:0.6;fill:#FFFFFF;enable-background:new    ;" width="30.75" height="20"/>
			</g>
			<rect x="349.063" y="154.5" style="fill:#407BFF;" width="28.5" height="15.25"/>
			<g>
				<rect x="351.385" y="156.779" style="fill:#FFFFFF;" width="21.082" height="0.656"/>
				<rect x="351.385" y="158.788" style="fill:#FFFFFF;" width="10.115" height="0.656"/>
				<rect x="351.385" y="160.797" style="fill:#FFFFFF;" width="12.74" height="0.656"/>
				<rect x="351.385" y="162.806" style="fill:#FFFFFF;" width="4.49" height="0.656"/>
				<rect x="351.385" y="164.815" style="fill:#FFFFFF;" width="2.908" height="0.656"/>
			</g>
		</g>
		<g>
			<g>
				<rect x="396.938" y="303.25" style="fill:#407BFF;" width="30.75" height="20"/>
				<rect x="396.938" y="303.25" style="opacity:0.6;fill:#FFFFFF;enable-background:new    ;" width="30.75" height="20"/>
			</g>
			<rect x="398.063" y="307" style="fill:#407BFF;" width="28.5" height="15.25"/>
			<g>
				<rect x="400.385" y="309.279" style="fill:#FFFFFF;" width="21.082" height="0.656"/>
				<rect x="400.385" y="311.288" style="fill:#FFFFFF;" width="10.115" height="0.656"/>
				<rect x="400.385" y="313.297" style="fill:#FFFFFF;" width="12.74" height="0.656"/>
				<rect x="400.385" y="315.306" style="fill:#FFFFFF;" width="4.49" height="0.656"/>
				<rect x="400.385" y="317.315" style="fill:#FFFFFF;" width="2.908" height="0.656"/>
			</g>
		</g>
		<g style="opacity:0.4;">
			<g>
				<rect x="212" y="187" style="fill:#FFFFFF;" width="170" height="2"/>
			</g>
			<g>
				<path style="fill:#FFFFFF;" d="M206,179h-2v-12c0-0.266,0.106-0.52,0.294-0.708l61.166-61c0.188-0.187,0.441-0.292,0.706-0.292
					H322v2h-55.42L206,167.415V179z"/>
			</g>
			<g>
				<path style="fill:#FFFFFF;" d="M351,280h-75c-0.265,0-0.52-0.105-0.707-0.293l-71-71C204.105,208.52,204,208.265,204,208v-10h2
					v9.586L276.414,278H351V280z"/>
			</g>
			<g>
				<path style="fill:#FFFFFF;" d="M301,216h-40.167c-0.264,0-0.518-0.105-0.705-0.29l-27-26.833l1.41-1.419L261.246,214H301V216z"
					/>
			</g>
			<g>
				<path style="fill:#FFFFFF;" d="M273.21,188.786l-1.419-1.41l26.914-27.081c0.188-0.189,0.443-0.295,0.71-0.295H340v2h-40.17
					L273.21,188.786z"/>
			</g>
			<g>
				<path style="fill:#FFFFFF;" d="M426,138H267.228c-0.267,0-0.523-0.107-0.711-0.296l-15.936-16.103l1.422-1.407L267.646,136H426
					V138z"/>
			</g>
			<g>
				<path style="fill:#FFFFFF;" d="M284.374,106.707l-1.414-1.414l26-26c0.188-0.188,0.442-0.293,0.707-0.293H393v2h-82.919
					L284.374,106.707z"/>
			</g>
			<g>
				<path style="fill:#FFFFFF;" d="M300.626,329.04l-40.333-40.333C260.105,288.52,260,288.266,260,288v-24h2v23.586l40.04,40.04
					L300.626,329.04z"/>
			</g>
			<g>
				<path style="fill:#FFFFFF;" d="M291.543,279.391l-1.419-1.41l26.519-26.686c0.188-0.189,0.443-0.295,0.71-0.295H418v2H317.768
					L291.543,279.391z"/>
			</g>
			<g>
				<path style="fill:#FFFFFF;" d="M385,308h-44.833c-0.265,0-0.52-0.105-0.707-0.293l-28.167-28.167l1.414-1.414L340.581,306H385
					V308z"/>
			</g>
			<g>
				<circle style="fill:#FFFFFF;" cx="393" cy="80" r="4.583"/>
			</g>
			<g>
				<path style="fill:#FFFFFF;" d="M331,116.584c-5.836,0-10.583-4.748-10.583-10.584S325.164,95.416,331,95.416
					s10.583,4.748,10.583,10.584S336.836,116.584,331,116.584z M331,97.416c-4.733,0-8.583,3.851-8.583,8.584
					s3.851,8.584,8.583,8.584s8.583-3.851,8.583-8.584S335.733,97.416,331,97.416z"/>
			</g>
			<g>
				<path style="fill:#FFFFFF;" d="M430.583,137.165c0,2.531-2.052,4.583-4.583,4.583s-4.583-2.052-4.583-4.583
					c0-2.531,2.052-4.583,4.583-4.583S430.583,134.634,430.583,137.165z"/>
			</g>
			<g>
				<circle style="fill:#FFFFFF;" cx="340" cy="161" r="4.583"/>
			</g>
			<g>
				<path style="fill:#FFFFFF;" d="M391,198.583c-5.836,0-10.583-4.748-10.583-10.583s4.748-10.583,10.583-10.583
					s10.583,4.748,10.583,10.583S396.836,198.583,391,198.583z M391,179.417c-4.733,0-8.583,3.851-8.583,8.583
					s3.851,8.583,8.583,8.583s8.583-3.851,8.583-8.583S395.733,179.417,391,179.417z"/>
			</g>
			<g>
				<circle style="fill:#FFFFFF;" cx="301" cy="215" r="4.583"/>
			</g>
			<g>
				<circle style="fill:#FFFFFF;" cx="418" cy="252" r="4.583"/>
			</g>
			<g>
				<path style="fill:#FFFFFF;" d="M360,289.417c-5.836,0-10.583-4.748-10.583-10.584S354.164,268.25,360,268.25
					s10.583,4.747,10.583,10.583S365.836,289.417,360,289.417z M360,270.25c-4.733,0-8.583,3.851-8.583,8.583
					c0,4.733,3.851,8.584,8.583,8.584s8.583-3.851,8.583-8.584C368.583,274.101,364.733,270.25,360,270.25z"/>
			</g>
			<g>
				<circle style="fill:#FFFFFF;" cx="385" cy="307" r="4.583"/>
			</g>
			<g>
				<path style="fill:#FFFFFF;" d="M305.917,328.333c0,2.531-2.052,4.583-4.583,4.583c-2.531,0-4.583-2.052-4.583-4.583
					c0-2.531,2.052-4.583,4.583-4.583C303.865,323.75,305.917,325.802,305.917,328.333z"/>
			</g>
			<g>
				<g>
					<path style="fill:#FFFFFF;" d="M205.017,199.653c-6.413,0-11.629-5.217-11.629-11.629c0-6.413,5.217-11.629,11.629-11.629
						s11.629,5.217,11.629,11.629C216.646,194.436,211.43,199.653,205.017,199.653z M205.017,179.394
						c-4.758,0-8.629,3.871-8.629,8.629c0,4.758,3.871,8.629,8.629,8.629s8.629-3.871,8.629-8.629
						C213.646,183.265,209.775,179.394,205.017,179.394z"/>
				</g>
			</g>
		</g>
	</g>
</g>
</svg>
