<?xml version="1.0" encoding="iso-8859-1"?>
<!-- Uploaded to: SVG Repo, www.svgrepo.com, Generator: SVG Repo Mixer Tools -->
<svg height="800px" width="800px" version="1.1" id="Layer_1" xmlns="http://www.w3.org/2000/svg" xmlns:xlink="http://www.w3.org/1999/xlink" 
	 viewBox="0 0 512 512" xml:space="preserve">
<g>
	<g>
		<path style="fill:#B0B6BB;" d="M342.78,512c-3.697,0-7.116-2.369-8.279-6.083l-24.454-78.102
			c-1.441-4.582,1.102-9.442,5.684-10.873c4.591-1.441,9.442,1.119,10.874,5.684l24.454,78.102
			c1.432,4.582-1.111,9.442-5.684,10.874C344.507,511.87,343.639,512,342.78,512"/>
		<path style="fill:#B0B6BB;" d="M160.542,512c-0.859,0-1.727-0.13-2.595-0.399c-4.573-1.432-7.116-6.292-5.684-10.874
			l24.455-78.102c1.432-4.573,6.257-7.125,10.874-5.684c4.582,1.432,7.125,6.292,5.684,10.873l-24.454,78.102
			C167.658,509.631,164.239,512,160.542,512"/>
	</g>
	<path style="fill:#EDEBDA;" d="M299.39,34.712v17.356h-86.78V34.712H47.729v242.983h416.542V34.712H299.39z"/>
	<g>
		<path style="fill:#CEC9AE;" d="M334.102,17.356H177.898c-4.799,0-8.678-3.879-8.678-8.678S173.099,0,177.898,0h156.203
			c4.799,0,8.678,3.879,8.678,8.678S338.901,17.356,334.102,17.356"/>
		<path style="fill:#CEC9AE;" d="M47.729,277.695h416.542v-43.39H47.729V277.695z"/>
	</g>
	<path style="fill:#DD342E;" d="M212.61,234.305H73.763l69.424-112.814L212.61,234.305z"/>
	<path style="fill:#25B99A;" d="M411.536,234.305l-42.722-69.424l-42.722,69.424H411.536z"/>
	<path style="fill:#ECBA16;" d="M403.525,121.492c-8.539,0-16.748-3.124-23.109-8.817c-3.575-3.193-3.879-8.678-0.694-12.253
		c3.211-3.584,8.687-3.87,12.253-0.694c3.176,2.838,7.281,4.408,11.55,4.408c9.572,0,17.356-7.784,17.356-17.356
		c0-4.929-2.109-9.641-5.78-12.922c-3.575-3.193-3.879-8.687-0.694-12.253c3.211-3.584,8.687-3.879,12.253-0.694
		c7.359,6.569,11.576,16.002,11.576,25.869C438.237,105.923,422.669,121.492,403.525,121.492"/>
	<path style="fill:#A2D672;" d="M266.013,234.305l-53.404-86.78l-26.702,43.39l26.702,43.39H266.013z"/>
	<g>
		<path style="fill:#ECBA16;" d="M91.119,112.814l-8.678-17.356L65.085,86.78l17.356-8.678l8.678-17.356l8.678,17.356l17.356,8.678
			l-17.356,8.678L91.119,112.814z"/>
		<path style="fill:#ECBA16;" d="M290.712,156.203l-8.678-17.356l-17.356-8.678l17.356-8.678l8.678-17.356l8.678,17.356
			l17.356,8.678l-17.356,8.678L290.712,156.203z"/>
	</g>
	<path style="fill:#B88353;" d="M4.339,338.441h503.322v-34.712H4.339V338.441z"/>
	<path style="fill:#8C5D37;" d="M169.22,373.153H342.78v-34.712H169.22V373.153z"/>
	<g>
		<path style="fill:#E0E2E3;" d="M332.647,425.22h-30.72c-0.581,0-1.093-0.356-1.284-0.903l-18.606-51.165h34.712l17.894,49.221
			C335.147,423.754,334.123,425.22,332.647,425.22"/>
		<path style="fill:#E0E2E3;" d="M170.675,425.22h30.72c0.581,0,1.093-0.356,1.284-0.903l18.606-51.165h-34.712l-17.894,49.221
			C168.176,423.754,169.2,425.22,170.675,425.22"/>
	</g>
	<path style="fill:#CEC9AE;" d="M212.61,52.068h86.78V8.678h-86.78V52.068z"/>
</g>
</svg>