<svg width="66" height="40" viewBox="0 0 66 40" fill="none" xmlns="http://www.w3.org/2000/svg">
<path d="M66 31.1724C66 31.1724 59.8044 25.7155 47.6521 25.9363C34.8482 26.1691 14.666 38.1297 0.000479411 27.7418C-0.0686001 27.6868 7.32687 37.1365 22.7201 35.464C35.7251 34.1471 47.2024 25.2703 66 31.1724Z" fill="#FEC020"/>
<path d="M66 33.0074C66 33.0074 64.6762 32.8759 62.5219 32.9469C59.4064 33.0516 57.3655 33.4062 54.7641 33.9177C53.7646 34.1145 52.9279 34.3368 51.7497 34.6558C50.5401 34.9837 49.286 35.4185 48.2314 35.7985C44.3128 37.2107 41.1294 38.8066 36.1936 39.2747C36.1936 39.2747 41.0535 40.712 49.4669 37.6968C57.7022 34.6304 58.3239 34.115 66 33.0074Z" fill="#FEC020"/>
<path d="M42.8931 32.3927C41.2492 32.897 39.5975 33.4089 37.9571 33.9033C33.7663 35.2536 29.7397 36.6061 25.5278 37.1201C23.7199 37.3589 21.8948 37.435 20.0737 37.3473C20.5822 37.4979 22.5171 37.9478 25.274 38.2174C31.3168 38.8081 37.407 37.9545 43.1056 35.8305C51.608 32.6618 58.0148 31.5004 66 31.9905C56.8025 29.4365 49.504 30.5391 42.8931 32.3927Z" fill="#FEC020"/>
<path d="M59.5078 7.0744H59.4133C54.2954 7.0993 52.9216 11.0151 52.9216 13.9177C52.9216 16.8203 54.2954 20.7366 59.4133 20.761H59.5078C64.6258 20.7361 66 16.8212 66 13.9177C66 11.0143 64.6275 7.0993 59.5078 7.0744ZM59.4608 17.6872C57.7843 17.6872 56.4254 16.7408 56.4254 13.9186C56.4254 11.0964 57.7843 10.1504 59.4608 10.1504C61.1373 10.1504 62.497 11.0972 62.497 13.9186C62.497 16.7399 61.1369 17.6859 59.4608 17.6859V17.6872Z" fill="#0070CE"/>
<path d="M45.4196 10.2045C47.5578 10.2045 47.9868 11.9285 47.9868 12.4661H51.401C51.401 9.26779 49.1423 7.10019 45.343 7.0744H45.1841C42.6419 7.10019 38.9335 8.22792 38.9309 13.9177C38.9283 19.6075 42.6419 20.7366 45.1841 20.761H45.343C49.1423 20.7348 51.401 18.5676 51.401 15.3693H47.9868C47.9868 15.907 47.5578 17.6309 45.4196 17.6309C43.892 17.6309 42.4777 16.7593 42.4755 13.9177C42.4733 11.0761 43.892 10.2045 45.4196 10.2045Z" fill="#0070CE"/>
<path d="M31.3448 15.3728H36.3266V12.3983H31.3448V10.1062H37.7023V7.0744H29.7477C29.2792 7.0744 28.83 7.26206 28.4988 7.5961C28.1675 7.93014 27.9814 8.3832 27.9814 8.85561V18.9798C27.9814 19.4522 28.1675 19.9053 28.4988 20.2393C28.83 20.5734 29.2792 20.761 29.7477 20.761H38.0183V17.5964H31.3435L31.3448 15.3728Z" fill="#0070CE"/>
<path d="M23.7147 13.1682L10.902 20.5047L8.89819 19.361L23.4923 11.0065C23.5276 10.9864 23.7129 10.8699 23.7129 10.8699V10.372L23.7085 7.13292L20.4303 5.26224L20.1347 5.43112L5.61691 13.7411L5.60544 13.7355L5.61162 13.732L5.60676 11.4594L18.4464 4.11069L11.8472 0.382874L0 7.16477V20.6867L1.12347 21.3281L3.29981 22.5665L5.3014 23.7089L5.31199 23.7054L5.30273 23.7106L11.8776 27.452L23.7235 20.6705L23.7147 13.1682Z" fill="#0070CE"/>
</svg>
