<!DOCTYPE svg PUBLIC "-//W3C//DTD SVG 1.1//EN" "http://www.w3.org/Graphics/SVG/1.1/DTD/svg11.dtd">
<!-- Uploaded to: SVG Repo, www.svgrepo.com, Transformed by: SVG Repo Mixer Tools -->
<svg height="800px" width="800px" version="1.1" id="Layer_1" xmlns="http://www.w3.org/2000/svg" xmlns:xlink="http://www.w3.org/1999/xlink" viewBox="-51.2 -51.2 614.40 614.40" xml:space="preserve" fill="#000000" stroke="#000000" stroke-width="6.144" transform="matrix(-1, 0, 0, -1, 0, 0)rotate(270)">
<g id="SVGRepo_bgCarrier" stroke-width="0">
<rect x="-51.2" y="-51.2" width="614.40" height="614.40" rx="0" fill="#7ed0ec" strokewidth="0"/>
</g>
<g id="SVGRepo_tracerCarrier" stroke-linecap="round" stroke-linejoin="round" stroke="#CCCCCC" stroke-width="3.072"/>
<g id="SVGRepo_iconCarrier"> <g transform="translate(0 -1)"> <path style="fill:#fff70a;" d="M256,327.621c-39,0-70.621-31.62-70.621-70.621S217,186.379,256,186.379S326.621,218,326.621,257 S295,327.621,256,327.621L256,327.621z M402.432,195.207c-16.084-38.065-46.574-68.555-84.639-84.639V1H194.207v109.568 c-38.065,16.084-68.555,46.574-84.639,84.639H0v123.586h109.568c16.084,38.065,46.574,68.555,84.639,84.639V513h123.586V403.432 c38.065-16.084,68.555-46.574,84.639-84.639H512V195.207H402.432z"/> <g> <path style="fill:#7dd624;" d="M279.784,153.535c-0.6,0-1.218-0.062-1.827-0.185c-10.62-2.233-21.786-2.807-32.433-1.774 c-4.908,0.477-9.172-3.081-9.64-7.927c-0.468-4.855,3.081-9.163,7.936-9.64c12.703-1.245,25.476-0.521,37.773,2.057 c4.767,1.006,7.821,5.685,6.824,10.461C287.544,150.683,283.871,153.535,279.784,153.535 M168.442,191.626 c-2.022,0-4.043-0.689-5.703-2.092c-3.725-3.151-4.175-8.722-1.024-12.438c8.227-9.71,17.841-18.052,28.593-24.806 c4.114-2.595,9.569-1.342,12.173,2.781c2.595,4.131,1.351,9.578-2.772,12.173c-9.216,5.791-17.47,12.95-24.532,21.266 C173.429,190.566,170.949,191.626,168.442,191.626 M351.164,201.671c-2.834,0-5.623-1.359-7.327-3.884 c-6.1-9.031-13.515-17.046-22.051-23.826c-3.831-3.019-4.467-8.572-1.43-12.394c3.019-3.814,8.58-4.476,12.394-1.43 c9.966,7.901,18.609,17.24,25.724,27.772c2.728,4.043,1.668,9.525-2.375,12.253C354.58,201.177,352.859,201.671,351.164,201.671 M141.474,273.387c-4.608,0-8.492-3.575-8.801-8.245c-0.177-2.701-0.265-5.429-0.256-8.166c0-9.975,1.192-19.924,3.566-29.546 c1.165-4.74,5.985-7.645,10.673-6.462c4.74,1.165,7.627,5.941,6.462,10.673c-2.022,8.245-3.046,16.781-3.046,25.362 c-0.009,2.366,0.062,4.679,0.221,6.983c0.318,4.864-3.372,9.066-8.236,9.384C141.862,273.378,141.668,273.387,141.474,273.387 M365.403,300.576c-0.874,0-1.774-0.124-2.666-0.415c-4.643-1.474-7.221-6.427-5.747-11.079 c3.275-10.346,4.943-21.142,4.943-32.079c0-4.652-0.309-9.34-0.909-13.939c-0.636-4.838,2.772-9.269,7.601-9.896 c4.846-0.689,9.269,2.763,9.905,7.601c0.706,5.358,1.059,10.814,1.059,16.234c0,12.747-1.942,25.344-5.773,37.411 C372.633,298.183,369.155,300.576,365.403,300.576 M178.964,350.884c-2.119,0-4.228-0.75-5.932-2.277 c-9.437-8.554-17.461-18.45-23.843-29.414c-2.445-4.211-1.024-9.613,3.187-12.076c4.211-2.454,9.613-1.024,12.076,3.196 c5.464,9.384,12.341,17.867,20.445,25.203c3.61,3.275,3.884,8.854,0.609,12.473C183.767,349.913,181.374,350.884,178.964,350.884 M310.451,366.88c-3.143,0-6.188-1.668-7.777-4.626c-2.322-4.299-0.715-9.649,3.566-11.97 c9.578-5.173,18.282-11.776,25.882-19.624c3.39-3.513,8.978-3.575,12.482-0.203c3.505,3.399,3.593,8.986,0.203,12.482 c-8.854,9.145-19.006,16.843-30.173,22.881C313.302,366.535,311.864,366.88,310.451,366.88 M256.003,380.589 c-11.361,0-22.643-1.545-33.51-4.599c-4.687-1.315-7.433-6.188-6.118-10.884c1.324-4.696,6.206-7.424,10.893-6.117 c10.425,2.922,21.389,4.22,32.212,3.893c5.023-0.221,8.96,3.646,9.119,8.519c0.177,4.864-3.646,8.951-8.51,9.119 C258.722,380.571,257.371,380.589,256.003,380.589"/> <path style="fill:#7dd624;" d="M256,53.966c-4.882,0-8.828-3.946-8.828-8.828V36.31c0-4.882,3.946-8.828,8.828-8.828 s8.828,3.946,8.828,8.828v8.828C264.828,50.02,260.882,53.966,256,53.966"/> <path style="fill:#7dd624;" d="M256,106.931c-4.882,0-8.828-3.946-8.828-8.828V80.448c0-4.882,3.946-8.828,8.828-8.828 s8.828,3.946,8.828,8.828v17.655C264.828,102.985,260.882,106.931,256,106.931"/> <path style="fill:#7dd624;" d="M256,442.379c-4.882,0-8.828-3.946-8.828-8.828v-17.655c0-4.882,3.946-8.828,8.828-8.828 s8.828,3.946,8.828,8.828v17.655C264.828,438.433,260.882,442.379,256,442.379"/> <path style="fill:#7dd624;" d="M256,486.517c-4.882,0-8.828-3.946-8.828-8.828v-8.828c0-4.882,3.946-8.828,8.828-8.828 s8.828,3.946,8.828,8.828v8.828C264.828,482.571,260.882,486.517,256,486.517"/> <path style="fill:#7dd624;" d="M476.69,265.828h-8.828c-4.882,0-8.828-3.946-8.828-8.828s3.946-8.828,8.828-8.828h8.828 c4.882,0,8.828,3.946,8.828,8.828S481.571,265.828,476.69,265.828"/> <path style="fill:#7dd624;" d="M432.552,265.828h-17.655c-4.882,0-8.828-3.946-8.828-8.828s3.946-8.828,8.828-8.828h17.655 c4.882,0,8.828,3.946,8.828,8.828S437.433,265.828,432.552,265.828"/> <path style="fill:#7dd624;" d="M97.103,265.828H79.448c-4.882,0-8.828-3.946-8.828-8.828s3.946-8.828,8.828-8.828h17.655 c4.882,0,8.828,3.946,8.828,8.828S101.985,265.828,97.103,265.828"/> <path style="fill:#7dd624;" d="M44.138,265.828H35.31c-4.882,0-8.828-3.946-8.828-8.828s3.946-8.828,8.828-8.828h8.828 c4.882,0,8.828,3.946,8.828,8.828S49.02,265.828,44.138,265.828"/> </g> </g> </g>
</svg>