<?xml version="1.0" ?>
<!-- Uploaded to: SVG Repo, www.svgrepo.com, Generator: SVG Repo Mixer Tools -->
<svg width="800px" height="800px" viewBox="0 0 64 64" version="1.1" xml:space="preserve" xmlns="http://www.w3.org/2000/svg" xmlns:xlink="http://www.w3.org/1999/xlink">
<style type="text/css">
	.st0{fill:#FFEEA9;}
	.st1{fill:#D32436;}
	.st2{fill:#8DD1D3;}
	.st3{fill:#330D00;}
	.st4{fill:none;stroke:#330D00;stroke-linecap:round;stroke-linejoin:round;stroke-miterlimit:10;}
</style>
<g id="_x34_0-Id_Card"/>
<g id="_x33_9-Formula"/>
<g id="_x33_8-Elbow"/>
<g id="_x33_7-Diploma"/>
<g id="_x33_6-Laptop"/>
<g id="_x33_5-Brush"/>
<g id="_x33_4-Baseball"/>
<g id="_x33_3-Student"/>
<g id="_x33_2-Highlighter"/>
<g id="_x33_1-Ruler"/>
<g id="_x33_0-Caliper"/>
<g id="_x32_9-Ruler_Elbow"/>
<g id="_x32_8-Abacus"/>
<g id="_x32_7-Id_Card"/>
<g id="_x32_6-Eraser"/>
<g id="_x32_5-Pencil"/>
<g id="_x32_4-Ink"/>
<g id="_x32_3-Graduation_Cap"/>
<g id="_x32_2-_Sling_Bag"/>
<g id="_x32_1-Rugby_Ball"/>
<g id="_x32_0-Clock"/>
<g id="_x31_9-Certificate"/>
<g id="_x31_8-Idea"/>
<g id="_x31_7-Bookshelf"/>
<g id="_x31_6-Formula"/>
<g id="_x31_5-Bell"/>
<g id="_x31_4-Magnifying_Glass"/>
<g id="_x31_3-Calculator"/>
<g id="_x31_2-Eyeglasses"/>
<g id="_x31_1-Bus"/>
<g id="_x31_0-Trophy"/>
<g id="_x39_-Globe"/>
<g id="_x38_-Basket_Ball"/>
<g id="_x37_-Pen"/>
<g id="_x36_-Board"/>
<g id="_x35_-Bag"/>
<g id="_x34_-Exam"/>
<g id="_x33_-Book">
<g>
<g>
<rect class="st0" height="61.8" width="8.8" x="9.9" y="1.1"/>
</g>
<g>
<rect class="st1" height="61.8" width="35.3" x="18.8" y="1.1"/>
</g>
<g>
<rect class="st2" height="11" width="22.1" x="25.4" y="7.7"/>
</g>
<g>
<g>
<path class="st3" d="M54.1,0H18.8H9.9C9.3,0,8.8,0.5,8.8,1.1v61.8c0,0.6,0.5,1.1,1.1,1.1h8.8h35.3c0.6,0,1.1-0.5,1.1-1.1V1.1      C55.2,0.5,54.7,0,54.1,0z M11,2.2h6.6v59.6H11V2.2z M53,61.8H19.9V2.2H53V61.8z"/>
</g>
<g>
<path class="st3" d="M25.4,19.9h22.1c0.6,0,1.1-0.5,1.1-1.1v-11c0-0.6-0.5-1.1-1.1-1.1H25.4c-0.6,0-1.1,0.5-1.1,1.1v11      C24.3,19.4,24.8,19.9,25.4,19.9z M26.5,8.8h19.9v8.8H26.5V8.8z"/>
</g>
<g>
<path class="st3" d="M24.3,33.1h24.3c0.6,0,1.1-0.5,1.1-1.1s-0.5-1.1-1.1-1.1H24.3c-0.6,0-1.1,0.5-1.1,1.1S23.7,33.1,24.3,33.1z      "/>
</g>
<g>
<path class="st3" d="M24.3,39.7h24.3c0.6,0,1.1-0.5,1.1-1.1s-0.5-1.1-1.1-1.1H24.3c-0.6,0-1.1,0.5-1.1,1.1S23.7,39.7,24.3,39.7z      "/>
</g>
<g>
<path class="st3" d="M24.3,46.3h24.3c0.6,0,1.1-0.5,1.1-1.1s-0.5-1.1-1.1-1.1H24.3c-0.6,0-1.1,0.5-1.1,1.1S23.7,46.3,24.3,46.3z      "/>
</g>
</g>
</g>
</g>
<g id="_x32_-Ruler"/>
<g id="_x31_-Building"/>
</svg>